<?xml version="1.0" encoding="utf-8"?>
<!-- Generator: Adobe Illustrator 24.0.1, SVG Export Plug-In . SVG Version: 6.00 Build 0)  -->
<svg version="1.1" id="Layer_1" xmlns="http://www.w3.org/2000/svg" xmlns:xlink="http://www.w3.org/1999/xlink" x="0px" y="0px"
	 viewBox="0 0 198.4 198.4" style="enable-background:new 0 0 198.4 198.4;" xml:space="preserve">
<style type="text/css">
	.st0{fill:#FFFFFF;}
	.st1{fill:#51261D;}
	.st2{fill:#E70E71;}
	.st3{fill:#72382A;}
	.st4{fill:#F5A576;}
	.st5{fill:#A6A8AB;}
	.st6{fill:#462615;}
	.st7{fill:#C36242;}
	.st8{fill:#552B18;}
	.st9{fill:#B6B6B6;}
	.st10{fill:#929497;}
	.st11{fill:#D3D3D3;}
	.st12{fill:#404041;}
</style>
<g>
	<circle class="st0" cx="109.3" cy="89.3" r="77.1"/>
	<path class="st1" d="M156.5,132.4l-13.2-43.2l-50.6,7.1l-8.8,66.2l75.6-10.3C157.7,145.9,156.8,139.2,156.5,132.4z"/>
	<path class="st2" d="M115.6,180.7c0.7-0.2,1.5-0.5,2.2-0.7c0.3-0.5,0.7-1,1.3-1.4c4.8-3.2,9.7-6.2,14.9-8.5l5.6-60.5H114l-17.2,8.2
		l-1.6,18l6.3,46.6l12.3-1.3C114.5,181,115,180.8,115.6,180.7z"/>
	<path class="st3" d="M158.7,140.4c-0.3-2.4-0.6-4.9-0.9-7.4c-2.3-14.3-3.5-36.2,1.9-64.1c0,0,0-0.1,0-0.4c0-1.2,0-2.3,0-3.5
		c0,0,0-0.1,0-0.1c-1.1-6.5-2.9-12.9-5.8-19.2c-2.6-5.5-5.8-11.3-11.1-14.5c-3.6-2.1-7.6-3.4-11.3-5.3c-7.6-0.8-22.5-0.9-26.4,10.4
		c0,0-21.6-11.1-23.5,22.8l3.7,56.4l-1.6,47c0,0,4.1,6.4,11.4,1.5c0,0,2.2-62.4,2.3-63.8c0.1-1.4,37.2-3.6,37.2-3.6L129,166
		c0,0,19.8,6.3,31.7-11.1C159.8,150.2,159.3,145.3,158.7,140.4z"/>
	<path class="st4" d="M85.5,59.1c0,0-1-19.5,19.8-14.7c0,0,31-14.7,32.6,29.8l-48.6-6.3L85.5,59.1z"/>
	<path class="st5" d="M116.1,109.4c-0.1-0.3,10.6-0.5,10.6-0.5h2.2c0,0-7.6,14.6-15.2,0.5H116.1z"/>
	<path class="st4" d="M85.5,59.1c0,0,1.9,11.7,1.6,16.2c0,0-5.6,14.4,6.4,21.6c0,0,6.8,5.3,20.8,4.7c0,0,1,9.5,3.9,10.1
		c0,0,3.7,3.7,8.6-2.7l-2.5-8l10.5-4.3c0,0,8.6-23.8-2.5-37.6l-3.5-4.7c0,0-11.9,5.6-22.4-2.5C106.3,51.9,93.6,64.7,85.5,59.1z"/>
	<path class="st4" d="M148.9,66.3c0,0,1.6,7.7,0,16c0,0,6.6,0,7.6-8C156.5,74.3,158.5,64.2,148.9,66.3z"/>
	<ellipse class="st6" cx="97.5" cy="68.9" rx="3.3" ry="4.3"/>
	<ellipse class="st6" cx="120.5" cy="65.7" rx="3.3" ry="4.3"/>
	<g>
		<g>
			<path class="st7" d="M103,59.5c1.5,2.2,2.5,4.7,2.9,7.3c0.2,1.2,0.3,2.6,0.2,3.8c-0.1,0.7-0.2,1.5-0.8,2.1
				c-0.4,0.4-0.9,0.7-1.2,1.2c-1.4,1.7-0.4,3.8,0.7,5.2c1.4,1.7,3.5,3,5.7,2.1c0.7-0.3,0.4-1.5-0.3-1.2c-2.3,1-4.9-1.4-5.4-3.6
				c-0.4-1.4,0.6-2,1.5-2.8c0.6-0.7,1-1.6,1.1-2.5c0.5-4.2-1-8.8-3.3-12.2C103.6,58.2,102.6,58.8,103,59.5L103,59.5z"/>
		</g>
	</g>
	<g>
		<g>
			<path class="st7" d="M101.8,84.9c1.9,3.3,5.7,5.3,9.5,4.9c3.7-0.4,6.9-3,8.2-6.4c0.3-0.8-0.9-1.1-1.2-0.3c-1.1,3-4,5.3-7.2,5.5
				c-3.3,0.3-6.5-1.5-8.2-4.3C102.5,83.6,101.4,84.2,101.8,84.9L101.8,84.9z"/>
		</g>
	</g>
	<g>
		<g>
			<path class="st7" d="M117.7,83c0.3,0.2,0.6,0.4,1,0.6c0.2,0.1,0.4,0.2,0.6,0.2c0.2,0.1,0.4,0.1,0.6,0.1c0.1,0,0.3-0.1,0.4-0.2
				c0.1-0.1,0.2-0.3,0.2-0.4c0-0.2-0.1-0.3-0.2-0.4c0,0-0.1-0.1-0.1-0.1c-0.1-0.1-0.2-0.1-0.3-0.1c0,0,0,0,0,0c0.1,0,0.1,0,0.2,0
				c-0.3,0-0.6-0.1-0.9-0.2c0,0,0.1,0,0.1,0.1c-0.3-0.1-0.5-0.3-0.7-0.4c0,0,0.1,0.1,0.1,0.1c0,0-0.1,0-0.1-0.1
				c-0.1-0.1-0.3-0.2-0.4-0.2c-0.2,0-0.3,0.1-0.4,0.2c-0.1,0.1-0.2,0.3-0.2,0.4C117.5,82.7,117.6,82.9,117.7,83L117.7,83z"/>
		</g>
	</g>
	<g>
		<g>
			<path class="st7" d="M102,84.9c0.4-0.4,0.8-0.8,1.2-1.3c0.1-0.1,0.2-0.3,0.2-0.4c0-0.2-0.1-0.3-0.2-0.4c-0.1-0.1-0.3-0.2-0.4-0.2
				c-0.2,0-0.3,0.1-0.4,0.2c-0.4,0.4-0.8,0.8-1.2,1.3c-0.1,0.1-0.2,0.3-0.2,0.4c0,0.2,0.1,0.3,0.2,0.4c0.1,0.1,0.3,0.2,0.4,0.2
				C101.7,85.1,101.9,85.1,102,84.9L102,84.9z"/>
		</g>
	</g>
	<g>
		<path class="st8" d="M92.6,58.7c0.7-1,2-1.3,3.1-1.6c1.1-0.2,2.1-0.4,3.2-0.2c0-0.5,0-0.9,0-1.4c-0.9-0.1-1.8-0.1-2.8-0.1
			s-1.8,0.3-2.6,0.7c-0.7,0.4-1.3,0.9-1.9,1.5c-0.1,0-0.1,0.1-0.1,0.2c0,0,0,0,0,0.1C91.9,58.1,92.2,58.4,92.6,58.7
			C92.5,58.7,92.5,58.6,92.6,58.7"/>
	</g>
	<g>
		<path class="st8" d="M120,53.5c0.1,0.5,0.2,0.9,0.1,1.4c1.1-0.4,2.3-0.1,3.3,0.4s1.8,1.3,2.6,2.1c0.2-0.5,0.6-0.9,1-1.1
			C125.3,54.4,122.6,53.4,120,53.5"/>
	</g>
	<path class="st3" d="M159.8,65.1c0-0.5,0-1-0.1-1.5C156.5,30.2,131.6,26,131.6,26l8.7,16.1l19.6,23.5
		C159.8,65.4,159.8,65.2,159.8,65.1z"/>
	<polygon class="st9" points="115.4,184.4 148.5,160.8 102.6,159 	"/>
	<polygon class="st10" points="106.3,181.3 130.6,163.9 96.9,162.6 	"/>
	<path class="st11" d="M29.6,178.2l86.1,6.6l-11.9-66.3c0,0-89.7-1.1-90.5-1.7c-0.8-0.7,13,61.2,13,61.2L29.6,178.2z"/>
	<path class="st4" d="M140.9,136.3c0,0,3.3-6.5,7.1-5c0,0,2,16.4-1.6,21.7l-20,16.4l-6.9,3.4c0,0-2.8-0.1,3.4-3.4c0,0-1-1.9-6.6,1.5
		c0,0-1.5-1.2,4.2-3.4c0,0-1.5-1.2-5.7,2.2c0,0-2.4-1.9,4.7-4.8c0,0-2.9-0.4-5,2.7c0,0-3.3-1.3,4.3-3.8l-3.2-1.9c0,0-0.6-2.2,4,0.2
		l5.7-0.8c0,0,11.8-13.1,15-13.8C140.2,147.5,139.5,137.3,140.9,136.3z"/>
	<path class="st2" d="M144.4,115.6c-1.3,1-4.8,5.2-4.1,21.9c0,0,3.6-6.6,7.6-5.4c0,0,0.3-12-2.7-16.3
		C145,115.7,144.7,115.6,144.4,115.6z"/>
	<polygon class="st2" points="113.7,109.7 97,112.7 96.8,117.9 112.7,116.7 	"/>
	<path class="st12" d="M129.9,161.8l-1.3-1.4c-0.9-0.9-0.8-2.4,0.1-3.2l0.4-0.3c0.9-0.9,2.4-0.8,3.2,0.1l1.3,1.4
		c0.9,0.9,0.8,2.4-0.1,3.2l-0.4,0.3C132.2,162.7,130.8,162.7,129.9,161.8z"/>
	<path class="st12" d="M134.1,163.8l-4.5-4.5c-0.3-0.3-0.3-0.9,0-1.2l0.1-0.1c0.3-0.3,0.9-0.3,1.2,0l4.5,4.5c0.3,0.3,0.3,0.9,0,1.2
		l-0.1,0.1C135,164.1,134.5,164.1,134.1,163.8z"/>
	<path class="st1" d="M107.2,110.9c0,0-6.7,1.2-7,7l-3.5,0.5l0.3-7.4l9.9-4.1L107.2,110.9z"/>
	<path class="st5" d="M67.4,152c-0.2-0.1-0.3-0.2-0.5-0.4c-0.3-0.3-0.5-0.6-0.6-1c0-0.2-0.1-0.4-0.1-0.6c0-0.3,0.1-0.6,0.2-0.9
		c0.1-0.3,0.2-0.5,0.5-0.7c0.2-0.2,0.4-0.4,0.7-0.5c-1.1-1.2-3-2-5.2-2c-3.5,0-6.3,2-6.3,4.6s2.8,4.6,6.3,4.6c2.6,0,4.9-1.2,5.8-2.8
		C68,152.2,67.7,152.1,67.4,152z"/>
	<g>
		<g>
			<path class="st5" d="M62.2,143.2C62.3,143.3,62.2,143.2,62.2,143.2c-0.1,0-0.1-0.1-0.2-0.1c-0.1,0-0.2-0.1-0.2-0.1
				c-0.1-0.1-0.2-0.1-0.2-0.2c0.1,0.1,0,0,0,0c0,0-0.1-0.1-0.1-0.1c-0.3-0.3-0.5-0.5-0.7-0.9c0-0.1-0.1-0.2-0.1-0.3
				c0,0,0-0.1-0.1-0.1c0,0.1,0,0,0-0.1c-0.1-0.2-0.1-0.4-0.2-0.6c0,0,0-0.1,0-0.1c0,0,0-0.2,0-0.1c0,0.1,0-0.1,0-0.1
				c0,0,0-0.1,0-0.1c0-0.1,0-0.2,0-0.3c0,0,0-0.1,0-0.1c0,0,0-0.2,0-0.1c-0.4,0-0.8,0.1-1.1,0.1c0.4,0.8,1.1,1.4,1.7,2
				c0.3,0.3,0.6,0.6,0.8,1c0.1,0.2,0.2,0.3,0.2,0.6c0,0.1,0-0.1,0,0c0,0.1,0,0.1,0,0.2c0,0.1,0,0.1,0,0.2c-0.2,0.8,1,1.1,1.2,0.3
				c0.3-1.1-0.3-2.2-1-2.9c-0.6-0.7-1.4-1.2-1.8-2c-0.2-0.5-1.1-0.4-1.1,0.1c-0.3,2.1,0.8,4.1,2.8,4.9c0.3,0.1,0.7-0.1,0.8-0.4
				C62.8,143.6,62.5,143.4,62.2,143.2L62.2,143.2z"/>
		</g>
	</g>
	<circle class="st2" cx="151.7" cy="79.8" r="1.1"/>
	<g>
		<g>
			<path class="st3" d="M101.6,31.2c0.6-0.6,2.9,3.5,3.2,4c0.9,1.7,1.6,3.5,2,5.3c0.2,0.8,1.4,0.5,1.2-0.3
				c-0.9-4.6-0.5-9.4,1.1-13.8c0.3-0.8-0.9-1.1-1.2-0.3c-1.7,4.6-2.1,9.6-1.1,14.5c0.4-0.1,0.8-0.2,1.2-0.3
				c-0.6-2.4-1.6-4.8-2.9-6.9c-0.7-1.1-2.7-4.7-4.4-2.9C100.1,30.9,101,31.8,101.6,31.2L101.6,31.2z"/>
		</g>
	</g>
</g>
</svg>
