<?xml version="1.0" encoding="utf-8"?>
<!-- Generator: Adobe Illustrator 24.0.1, SVG Export Plug-In . SVG Version: 6.00 Build 0)  -->
<svg version="1.1" id="Layer_1" xmlns="http://www.w3.org/2000/svg" xmlns:xlink="http://www.w3.org/1999/xlink" x="0px" y="0px"
	 viewBox="0 0 425.2 425.2" style="enable-background:new 0 0 425.2 425.2;" xml:space="preserve">
<style type="text/css">
	.st0{fill:#1E1E1E;}
	.st1{fill:#314A83;}
	.st2{fill:#72382A;}
	.st3{fill:#DD916B;}
	.st4{fill:#FFFFFF;}
	.st5{fill:#1B1A1A;}
	.st6{fill:#22325C;}
	.st7{fill:#51251D;}
	.st8{fill:#C1B6B0;}
	.st9{fill:#E9D45B;}
	.st10{fill:#D6D5D4;}
	.st11{fill:#CCB0A3;}
	.st12{fill:#F6A676;}
	.st13{fill:#454342;}
	.st14{fill:#351A10;}
	.st15{fill:#2D2C2C;}
	.st16{fill:none;stroke:#E9D45B;stroke-miterlimit:10;}
	.st17{fill:#FDDBCA;}
	.st18{fill:#B3AEAD;}
	.st19{fill:#171717;}
	.st20{fill:#E2DAD9;}
	.st21{fill:#23325C;}
	.st22{fill:#C42B73;}
</style>
<path class="st0" d="M233.9,286.8l-7.2,8.4c0,0-3.2,7.3,2,10.3c0,0,17.8,6,25.4,0l8.3-2.6l-1.5-3.8L233.9,286.8z"/>
<path class="st1" d="M149,149.7l-13.5-17.8c0,0-9.1-13-10.6-40.7c-0.4-8.2-0.1-16.5,0-17.1c0.4-4.9,0.6-8.7,1.9-13.5
	c1.7-6.5,4.4-11.4,6.3-14.6c2.1-3.2,6-7.5,11.8-11.7c7.3-5.3,17.4-9.4,28.7-5l7.9,4.8l7.4-5.1c0,0,25.7-2.4,41.5,25.2
	s5.4,49.3,4.9,50.6c-0.4,1.3-11.5,26.7-11.5,26.7l-7.9,15.9l-18.9,8.3l-22.2,7.7C175,163.3,157.7,159.8,149,149.7z"/>
<path class="st2" d="M125.5,68.2l-3.3,2.7c0,0-0.5,19.7-0.9,25.8s-0.5,6.1-0.5,6.1l-1.7,13.8l-2.7,13.1l-5.7,18.2c0,0-2,8.4-2.1,9.3
	c-0.1,0.8-2,17.7,2.5,28l7.6,21.8l1.4-13.4l3.6-13.4l5.1-5.2l6.9-5.5l1.1-3.2l7.9-5.7l1.9,2.1l2.1-12l-5.4-6.7l-12-20.5l-4.4-14.4
	l-1.2-8l-1-10.2l-0.4-7.4c0.2-1.9,0.4-3.9,0.6-5.8C125.2,74.7,125.3,71.4,125.5,68.2z"/>
<polygon class="st3" points="134.6,111.6 135,104.8 139,102.5 163.8,115.6 179.8,118.7 205.7,119.1 228.1,115.1 227.3,121.5 
	219.2,132.5 201.4,137.9 165.7,133.5 144.6,125.6 136.1,116.6 "/>
<path class="st4" d="M145.9,116.2c0.1-0.6,0.4-1.9,1.4-3.2c1-1.3,2.1-1.9,2.7-2.2c2-0.1,3.6,0.1,4.8,0.3c1.1,0.2,3,0.5,5.3,1.6
	c0.4,0.2,0.8,0.4,1,0.5c0.6,0.3,1.2,0.7,1.8,1.2c1.2,0.9,2.2,1.9,2.8,2.8c0.2,1.3,0.4,3.3,0,5.5c-0.2,1.2-0.6,2.3-0.9,3.1
	C158.5,122.6,152.2,119.4,145.9,116.2z"/>
<path class="st4" d="M202.8,122.3c0,0-2.1,6.4,0.8,10.3l12-5.1l2.9-3.8l0.6-2.1V119l-14.8,1L202.8,122.3z"/>
<path class="st5" d="M118.4,62c0-0.3,2.2-5.2,2.2-5.2l6-3.2l1.5,2.7l-1.5,5.7l-1.2,5.2l-5,2.4L118.4,62z"/>
<polygon class="st1" points="117.7,62.5 111,63.8 103.9,69.6 97.7,79.5 93,90.6 92,96.1 105.6,91.2 112.2,82.8 113.6,77.7 
	113.9,70.9 114.9,65.7 "/>
<path class="st6" d="M118.4,63.6c-1.2,1.2-2.5,2.4-3.7,3.6c-0.3,1.9-0.7,3.9-1,5.8l-0.1,4.7l-2.2,6.1l-3.3,6.2l3,10.8l1.4,2.4l3-7.8
	l3.4-8.2l2-7.3l0.5-3.4v-6.6L118.4,63.6z"/>
<polygon class="st7" points="181.3,161.1 182,165.5 189.3,170.2 196,171.5 197.2,165 201.3,157.3 203.3,154.9 "/>
<path class="st3" d="M148,149.5c-0.2,2.8-0.5,5.7-0.7,8.5c0,1.4,0,2.8-0.1,4.3c-0.1,0.6-0.3,1.9,0.3,3.4c0.7,1.8,2.1,2.7,2.5,3
	c3.7,4.4,7.4,8.9,11.1,13.3l4.7-9.7l0.3-5.6c0.1-0.9,0.2-1.7,0.2-2.6c0.2-0.7,0.3-1.3,0.5-2C160.7,157.9,154.4,153.7,148,149.5z"/>
<polygon class="st8" points="168.2,190.7 161.3,182 165.4,173.7 166.4,168.4 166.5,161.8 175,165.2 "/>
<polygon class="st9" points="181,161.8 182.8,167 186.9,171 197.2,173.4 207.1,180.6 206.2,185.2 189.2,185.9 184.5,188.1 
	188,191.5 189.5,192.6 189.1,196 184.1,201 175.4,199.6 168.2,190.7 169.9,183.8 176.4,161.8 "/>
<path class="st10" d="M147.2,160.4c0,0-1.4,8.4,5.6,11.5l8.4,10.9l16.5,18.2l2.3,3.1l-3.2,1.3l-13.1-7.6l-11.3-14.7l-14.7-12.9
	l-1.3-2.2l2.4-3L147.2,160.4z"/>
<path class="st9" d="M180.9,206.5l6.8-6.7l0.9,5.6l7.8,10.7l0.5,2.1c0.1,1.1,0.3,2.1,0.4,3.2c0.3,2.1-0.5,4-2,5.1
	c-1.3,0.9-2.7,0.8-3.2,0.8c-2.8-4.3-5.7-8.6-8.5-13L180.9,206.5z"/>
<path class="st9" d="M160.8,243.7l30.6-11.5l-0.8-1.9l2.1-4l-9.1-11.9l-2.3-5.1l-0.4-2.7l-6.1-1.5l-8.8-5.2l-8-10.5L145.8,177
	l-9.3-6.3l-9.3,6.1l-5,8.4l-1.9,8l-1.2,11.2l-1.2,8.4l-4.6,10.9l8.9,11.8l4.4-8.8l4.5-11.1l3.8-14l13.6,16.6h-0.7
	c0,0-1.2,12.7,1.4,15.5L160.8,243.7z"/>
<polygon class="st9" points="145.1,266.2 155.1,256.5 162.2,244.7 195.1,232.5 198,229.6 199.8,231.5 203.2,235.9 207.6,239.2 
	208.8,244.2 209.4,251 209.4,261.3 209,270 208.1,284.4 207.3,298.3 207.6,313 191.4,299.3 176.4,285.8 164.9,273.1 152.4,267.1 "/>
<path class="st11" d="M118.2,302l4.8-13.5l8.3-11.8l8.3-7c0,0,20.9-6.5,29.1,8.6L118.2,302z"/>
<path class="st12" d="M70,336.7c0,0-1-10.1,10.6-5.9l8.5,1.8c0,0-1.5,12.2,5.6,13l-4.6,2C90.1,347.6,71.5,343.6,70,336.7z"/>
<path class="st5" d="M95.1,329l7.1,11.7l5.2,4.5l-5.2,2.8L91,341.6c0,0-5.7-10.8,1.6-14.6l2.5-4.9C95.1,322.2,94.4,327.1,95.1,329z"
	/>
<path class="st13" d="M117.6,346.4v-2.9L102,331.9c-0.2-1.5-0.3-3-0.5-4.5c-0.2-0.5-0.6-1.4-0.3-2.5c0.2-0.9,0.7-1.5,1.1-1.9
	c2.8-2.9,4.4-4.7,7.6-5.7c3.4-1,6.4-0.4,7.7-0.1c0-1.4,0-2.8,0-4.2l-6.4-2.1c-1.7,0.1-3.8,0.3-6.1,1c-2.1,0.6-3.8,1.3-5.2,2
	c-0.7,0.9-1.4,1.9-2.2,3c-1.2,1.9-2,3.7-2.6,5.3c-0.1,1.7-0.2,3.5-0.2,5.2c0,0,4.5,17.3,16.4,19.8L117.6,346.4z"/>
<path class="st2" d="M127.1,225.4l4.5-11.9l3.3-12c4.3,5.3,8.6,10.6,12.9,15.9c-0.3,2-0.5,4.3-0.3,7.1c0.2,3.7,0.9,6.9,1.7,9.2
	l8.2,7.8l4.8,3.2l-3.2,5.7l-12.1,16l-10.4,4.8l-8.9,10.5l-14.2,1.9v-3.2l4.2-8.1l2.3-9l11,3.2l6.6-1.2l4.7-5.5l0.6-7.2l-14.2-7.2
	l1.3-4.8c0-1.6,0-3.2,0-4.7c-0.4-2.5-0.9-4.9-1.3-7.4L127.1,225.4z"/>
<polygon class="st3" points="113.4,250 119.1,244.8 128.6,245.6 139.2,252.5 142.5,255.7 142.2,259.9 137.5,265.4 130.9,266.6 
	116,259.9 112,254.6 "/>
<circle class="st14" cx="156.5" cy="117.9" r="4.7"/>
<circle class="st14" cx="210.6" cy="123.7" r="4.7"/>
<g>
	<g>
		<path class="st15" d="M205.5,93.7c-1.2,2.7-2.4,5.4-3.7,8.1c-0.6,1.3-1.2,2.7-1.8,4c-0.6,1.3-1.2,2.6-1.6,4
			c-0.3,1.3-0.2,2.8-0.2,4.1c0,1.2-0.2,2.6,0.4,3.8c0.9,2,3.2,2.8,5.1,3.4c-0.1,0,0-2.3,0-2.5c0-0.2,0.1-2.5,0-2.5
			c-1.6-0.5-3.4-1.1-4.5-2.4c-0.3-0.3-0.5-0.6-0.6-1c-0.1-0.2-0.1-0.5-0.2-0.7c-0.2-0.8-0.2-0.2,0,1.6c-0.1,1.8-0.1,2.3,0,1.6
			c0.3-1.1,0.6-2.1,1.1-3.1c2-4.5,4-8.9,6-13.4c0.1-0.1,0-0.6,0-0.7c0-0.6,0-1.2,0-1.8c0-0.6,0-1.2,0-1.8
			C205.6,94.2,205.5,93.8,205.5,93.7L205.5,93.7z"/>
	</g>
</g>
<path class="st12" d="M113.4,258.1l-7.2-4.1l-1.4-1.7l-6.1,5.8l-6.7,0.7l-3.7-5.1l-6,7.3l-12.8,6.9l-12.7-1.7l1.2-4.2l13.2-9.4
	l-16.8-0.4L47,249c0,0-3.2-8.8,6-11.5l22.1-1.2l-18.8-9.1l-3.8-6.3c0,0-2.8-12.4,6.4-12.3l16.8,10.9l19.7,7.7l-1.6-5.7l-12.3-7.7
	l-5.5-8.4c0,0-5-16.4,9.2-19.4l10,6.1l8.5,13.4l8.3,16l9.2,12.8l3,5.7l0.2,4.4l-9.2,1.9C115.2,246.1,110.3,255.4,113.4,258.1z"/>
<path class="st7" d="M186.9,186.9c0.4-0.2,9.6-2.1,9.6-2.1l-3.6,6.6c0,0-2.7,9.7,1,16.1l0.8,4.7l-5.1-4.4l-2-5.2l0.5-4.9l1.1-3.5
	l-0.9-3.6L186.9,186.9z"/>
<path class="st16" d="M203.3,176.3l3.7,4.3v4.3l-5-0.5v2.6l1.2,2.9l6.6-1.2l2.5-4.4c0,0,3.3-8-1.9-11L203.3,176.3z"/>
<path class="st17" d="M219.8,179.3l0.9,1.4c0,0,0.5,6-3.6,9.2l-7.3,2.2l0.2-3.3c0,0,6.1-9.3,2.2-14.7L219.8,179.3z"/>
<polygon class="st13" points="230.2,178.1 228.6,185.1 229.4,188 229.4,192.1 235.1,193.7 240,189.9 240.4,185.7 234.5,178.1 "/>
<path class="st18" d="M239.6,184.7c0,0,2.1,3.9-2.1,8l34.8,0.3l51.9,1.3l56-2.5l-0.7-3.2l-85.1-2.7L239.6,184.7z"/>
<path class="st6" d="M208.8,244.2l15.7,6.6l25.9,17.1l23.9,21.1c0,0,6.2,4.7,0.5,12.4l-10.8,8.4l-2-9.8l-19.1-9.8l-32.5-11.9
	L209,277l-0.3-1.9C208.7,275.1,210.3,253.8,208.8,244.2z"/>
<path class="st0" d="M194.4,303.6c0,0,9,22.1,9,26.6c0,0,1.7,8.1-0.6,12.7c0,0-5.6,14.9,8.3,19.3l11.7-2.2l5.3-7.3l4.9-0.1l14.1,6.6
	c0,0,15-2.4,8.1-12.7L237,330.4l-11.4-15l-4.2-10.1l-11,2.8l-3.1-1.7l0.3,6.6l-9.1-8.8L194.4,303.6z"/>
<g>
	<g>
		<path class="st19" d="M147,109.9c17.3,12.7,40.4,12.4,60.9,11c7-0.5,13.9-1.4,20.7-3.5c0.1,0,0-2.3,0-2.5c0-0.2-0.1-2.5,0-2.5
			c-11,3.5-22.9,4-34.4,4.2c-10.6,0.2-21.4-0.6-31.5-3.8c-5.6-1.8-10.9-4.4-15.6-7.8c0.2,0.1,0,2.2,0,2.5
			C147,107.8,146.7,109.7,147,109.9L147,109.9z"/>
	</g>
</g>
<path class="st13" d="M80,330.6l0.2-6.5l-2.2-2.3l-7.5,3l-14.2,16.5l-14.5,16.9l-15.9,18.8l-4.8,8.7c0,0-2.5,9.5,2.7,10.1l20.7,2.7
	l8-4.1l6.4-7.9l6.3,0.5l2.9,3c0,0,0.3,6.3,1.3,6.9c1,0.6,1,0.6,1,0.6l14-0.5l11.3-2.7l1.7-4.7l-4.6-6l-5.2-6.9l0.1,0.8l-8.3-14.2
	c0,0-4.6-11.5,1.2-18.7l-9.8-6.4c0,0-2.5-5.6,2.5-7.9l7,0.9L80,330.6z"/>
<polygon class="st0" points="207.9,287.3 217.1,294.7 219.1,298.9 207.4,301.2 "/>
<g>
	<g>
		<path class="st2" d="M212.7,147.3c-4.4,2.6-8.8,5.4-12.1,9.4c-1.5,1.8-2.7,3.8-3.5,6c-0.9,2.4-1,4.8-1.2,7.3
			c-0.1,1.5,0.1,3.6,0,4.8c0.2-2.6,0.4-5.1,1.3-7.5c0.9-2.2,2.1-4.2,3.6-5.9c3.2-3.9,7.5-6.6,11.8-9.2c0.2-0.1,0-2.2,0-2.5
			C212.7,149.5,212.5,147.4,212.7,147.3L212.7,147.3z"/>
	</g>
</g>
<g>
	<g>
		<path class="st19" d="M176.7,85.3c0.5,4.3,2.1,8.3,3.8,12.2c0.9,2,1.8,3.9,2.7,5.9c0.4,0.9,0.8,1.9,1.1,2.8c0.2,0.5,0.4,1,0.5,1.6
			c0.1,0.3,0.1,0.5,0.2,0.8c0.2,1.5,0.3,0.5,0.1-3.1c0-0.1,0-0.2,0-0.3c-0.3,3-3.7,4.2-6.1,5.3c-2.9,1.3-5.9,2.2-9,2.9
			c0,1.7,0,3.3,0,5c0.1-0.4,0.2-0.7,0.3-1.1c0.2-0.7,0-1.8,0-2.5c0-0.7-0.2-1.8,0-2.5c-0.1,0.4-0.2,0.7-0.3,1.1c-0.1,0.5,0.2,5,0,5
			c4.3-0.9,8.4-2.4,12.2-4.5c1.7-0.9,2.8-2,2.9-4c0.1-2,0.2-4.2-0.1-6.3c-0.4-1.9-1.3-3.8-2-5.6c-0.9-2-1.8-4-2.7-5.9
			c-1.7-3.8-3.2-7.7-3.7-11.8C176.9,81.9,176.5,83.6,176.7,85.3L176.7,85.3z"/>
	</g>
</g>
<g>
	<g>
		<path d="M165.1,126.2c0.5-1.6,1.3-3.3,1.3-5.1c0-1.4,0.1-2.9,0-4.3c0-0.5-0.1-1-0.3-1.6c-1-2.2-3.8-3.5-5.9-4.4
			c-1.3-0.5-2.6-1-3.9-1.4c-1.7-0.6-3.6-1.4-5.5-1c-1.4,0.3-2.5,1.3-3.4,2.4c-0.4,0.5-0.8,1.1-1.2,1.7c-0.2,0.3-0.3,0.8-0.6,1
			c-0.1,0.4-0.2,0.3-0.2-0.1c0-0.2,0-0.5-0.1-0.7c0.1,1.7-0.1,3.3,0,5c0,0,0.1,1,0.1,1c0.1,0,0.4-0.7,0.4-0.8c0.3-0.5,0.6-1,1-1.5
			c0.6-0.9,1.4-1.8,2.3-2.4c2.5-1.7,5.4-0.4,7.9,0.5c1.9,0.7,3.9,1.4,5.6,2.4c1.7,1,3.5,2.3,3.7,4.4c0-1.6,0-3.3,0-4.9
			c-0.1,1.6-0.8,3.2-1.3,4.6c-0.2,0.7,0,1.8,0,2.5c0,0.6,0,1.2,0,1.8C165.1,125.6,165.2,126,165.1,126.2L165.1,126.2z"/>
	</g>
</g>
<g>
	<g>
		<path d="M203.5,131c-0.5-0.8-0.8-1.7-1.1-2.6c-0.1-0.4-0.2-0.9-0.3-1.3c0-0.2-0.1-0.5-0.1-0.7c0-0.1,0-0.3,0-0.4
			c0,1.3,0,2.6,0,3.9c0-0.1,0-0.2,0-0.3c0.2-1.9,1-3.6,2.4-4.9c0.9-0.8,1.9-1.2,3-1.6c1.2-0.5,2.5-1,3.8-1.3
			c1.2-0.3,2.5-0.4,3.8-0.2c1.2,0.2,2.7,0.6,3.5,1.5c0.4,0.4,0.5,0.9,0.7,1.4c0.5,1.9,0.4-5.6,0-3.4c0,0.3-0.1,0.5-0.2,0.8
			c-0.4,1.4-1.2,2.6-2.2,3.7c-0.1,0.1,0,0.7,0,0.7c0,0.6,0,1.2,0,1.8c0,0.6,0,1.2,0,1.8c0,0.1,0.1,0.7,0,0.7c1-1.1,1.8-2.4,2.2-3.9
			c0.2-0.6,0.2-1.1,0.2-1.7c0-1.6,0.1-3.2,0-4.8c-0.1-1.3-0.6-2.2-1.8-2.8c-1.4-0.7-3.1-1-4.7-0.8c-1.6,0.2-3.1,0.6-4.5,1.2
			c-1.4,0.5-2.7,1-3.8,2c-1.7,1.5-2.4,3.7-2.4,5.9c0,2.2-0.2,4.5,0.2,6.6c0.2,1.3,0.7,2.6,1.4,3.8c0-0.1,0-0.7,0-0.7
			c0-0.6,0-1.2,0-1.8c0-0.6,0-1.2,0-1.8C203.5,131.5,203.6,131.1,203.5,131L203.5,131z"/>
	</g>
</g>
<g>
	<g>
		<path class="st7" d="M202.8,135.6c5.1-2.3,10.1-4.6,15.2-6.9c0.2-0.1,0-2.3,0-2.5c0-0.6,0-1.2,0-1.8c0-0.1,0-0.7,0-0.7
			c-5.1,2.3-10.1,4.6-15.2,6.9c-0.2,0.1,0,2.3,0,2.5c0,0.6,0,1.2,0,1.8C202.7,135,202.8,135.6,202.8,135.6L202.8,135.6z"/>
	</g>
</g>
<g>
	<g>
		<path class="st7" d="M165.7,123.7c-10.2-2.5-19.5-8.1-26.5-15.9c0,0,0,0.8,0,0.7c0,0.6,0,1.2,0,1.8c0,0.6,0,1.2,0,1.8
			c0,0.1-0.1,0.6,0,0.7c7,7.8,16.3,13.4,26.5,15.9C165.3,128.6,166.1,123.8,165.7,123.7L165.7,123.7z"/>
	</g>
</g>
<g>
	<g>
		<path class="st12" d="M148.7,148.5c-0.9,4.2-1.4,8.4-1.5,12.7c0,1,0,2.1,0,3.1c0,0.5,0,1,0,1.5c0,0,0,0.5,0,0.3
			c0.1-4.2,0.6-8.4,1.5-12.5c0.2-0.8,0-1.7,0-2.5c0-0.6,0-1.2,0-1.8C148.7,149,148.6,148.8,148.7,148.5L148.7,148.5z"/>
	</g>
</g>
<g>
	<g>
		<path class="st10" d="M134.6,171.2c4.3-3.1,8.5-6.2,12.8-9.3c0,0,0-0.8,0-0.7c0-0.6,0-1.2,0-1.8c0-0.6,0-1.2,0-1.8
			c0-0.1-0.1-0.7,0-0.7c-4.3,3.1-8.5,6.2-12.8,9.3c0,0,0,0.8,0,0.7c0,0.6,0,1.2,0,1.8c0,0.6,0,1.2,0,1.8
			C134.6,170.6,134.7,171.2,134.6,171.2L134.6,171.2z"/>
	</g>
</g>
<g>
	<g>
		<path class="st2" d="M196.5,182.4c-3.3,4.6-4.7,10-4.7,15.6c0,3.4-0.1,6.7,0.8,10c0.5,2.1,1.3,4.1,2.3,6c0-0.1,0-0.7,0-0.7
			c0-0.6,0-1.2,0-1.8c0-0.6,0-1.2,0-1.8c0-0.2,0.1-0.6,0-0.7c-0.7-1.4-1.4-2.9-1.9-4.4c-0.3-1.1-0.6-2.2-0.8-3.4
			c-0.1-0.6-0.2-1.3-0.3-1.9c-0.1-0.6-0.1-2.6-0.1,0.2c0,3,0,0.6,0.1,0.1c0.4-4.4,2-8.6,4.6-12.2c0.3-0.4,0-2,0-2.5
			c0-0.6,0-1.2,0-1.8C196.5,183,196.5,182.5,196.5,182.4L196.5,182.4z"/>
	</g>
</g>
<g>
	<g>
		<path d="M181,166.8c0,0,0-5,0-5C181,161.8,181,166.8,181,166.8L181,166.8z"/>
	</g>
</g>
<g>
	<g>
		<path class="st9" d="M180.8,167c1.3,1.3,2.7,2.7,4,4c1.1,1.1,2.3,2.2,2.6,3.8c0-0.2,0-0.6,0-0.7c0-0.6,0-1.2,0-1.8
			c0-0.6,0-1.2,0-1.8c0-0.2,0-0.5,0-0.7c-0.3-1.6-1.5-2.7-2.6-3.8c-1.3-1.3-2.7-2.7-4-4c0,0,0,0.8,0,0.7c0,0.6,0,1.2,0,1.8
			c0,0.6,0,1.2,0,1.8C180.8,166.4,180.7,166.9,180.8,167L180.8,167z"/>
	</g>
</g>
<g>
	<g>
		<path class="st17" d="M175.4,161.1c-1.1,4.4-2.3,8.8-3.5,13.2c-0.6,2.2-1.2,4.4-1.9,6.6c-0.3,1.1-0.6,2.2-1,3.3
			c-0.3,0.9-0.7,1.9-0.8,2.9c-0.2,1.6,0.2,3.4,0,5c0.1-1,0.6-2,0.8-2.9c0.3-1.1,0.6-2.2,1-3.3c0.6-2.2,1.3-4.4,1.9-6.6
			c1.2-4.4,2.4-8.8,3.5-13.2c0.2-0.7,0-1.7,0-2.5C175.4,162.9,175.2,161.9,175.4,161.1L175.4,161.1z"/>
	</g>
</g>
<g>
	<g>
		<path class="st12" d="M166.4,167.1c0,0.2,0,0.4,0,0.6c0,1.3,0,0.4,0-2.7c0,0.5-0.1,0.9-0.1,1.4c-0.1,0.7-0.2,1.4-0.3,2.1
			c-0.3,1.4-0.6,2.8-1.1,4.2c-1,2.8-2.4,5.3-4.2,7.6c-0.1,0.1,0,0.7,0,0.7c0,0.6,0,1.2,0,1.8c0,0.6,0,1.2,0,1.8c0,0.1,0.1,0.6,0,0.7
			c2.4-2.9,4-6.4,5-10c1-4.1,1-8.6,0.7-12.9C166.5,163.5,166.3,165.6,166.4,167.1L166.4,167.1z"/>
	</g>
</g>
<g>
	<g>
		<path class="st20" d="M240,187.4c21.3-0.1,42.5,0.1,63.8,0.6c22,0.5,44.1,1.4,66.1,2.5c12.4,0.7,24.7,1.4,37.1,2.3
			c0-1.7,0-3.3,0-5c-21.4,2.3-42.8,3.6-64.3,4c-11.5,0.2-23,0.1-34.5-0.2c-12.3-0.4-24.5-1-36.8-1.2c-11.5-0.2-23,0.1-34.5,0.4
			c-0.1,0,0,5,0,5c10.6-0.3,21.2-0.5,31.8-0.4c11.6,0.1,23.2,0.7,34.8,1.1c22.1,0.8,44.2,0.6,66.3-0.6c12.5-0.7,24.9-1.7,37.3-3
			c0.1,0,0-5,0-5c-22-1.5-44.1-2.7-66.1-3.6c-21.7-0.9-43.5-1.4-65.2-1.7c-11.9-0.1-23.8-0.2-35.7-0.1
			C240,182.4,240,187.4,240,187.4L240,187.4z"/>
	</g>
</g>
<g>
	<g>
		<path class="st15" d="M228.9,182c0-0.2,0-0.4,0-0.6c-0.1-1.7-0.1,3.9,0,3.3c0-0.4,0.1-0.9,0.1-1.3c0.1-0.7,0.2-1.5,0.4-2.2
			c0.1-0.5,0.3-1.1,0.8-1.4c0.5-0.3,1.2-0.1,1.7,0c2.1,0.6,4.1,1.8,5.5,3.5c1.4,1.6,2.5,3.6,2.8,5.8c0,0.1,0,0.3,0.1,0.4
			c0-0.6,0-1.2,0-1.7c0.1-1.8,0.1-2.3,0-1.5c-0.1,0.3-0.1,0.5-0.2,0.8c-0.2,0.5-0.5,1-0.8,1.5c-0.7,0.9-1.6,1.6-2.5,2.1
			c-1.3,0.7-2.8,0.9-4.2,1.1c-0.8,0.1-1.6,0.1-2.3,0.1c-0.7,0-1.5,0.1-2.2-0.2c0.1,0,0,2.3,0,2.5c0,0.2-0.1,2.4,0,2.5
			c0.7,0.2,1.5,0.2,2.2,0.2c0.9,0,1.9,0,2.8-0.1c1.5-0.2,3.1-0.6,4.4-1.4c1.1-0.7,2.1-1.7,2.6-2.9c0.2-0.6,0.3-1.3,0.4-2
			c0.1-1.5,0-3,0-4.5c0-2.8-1-5.4-2.9-7.6c-0.9-1-2-1.9-3.1-2.5c-1-0.5-2.7-1.4-3.9-1.1c-0.9,0.3-1,1.3-1.2,2.1
			c-0.2,0.9-0.3,1.8-0.4,2.8c-0.1,2.5-0.2,5,0.1,7.5C228.8,185.3,229.1,183.6,228.9,182L228.9,182z"/>
	</g>
</g>
<path class="st3" d="M220.6,179.3c0.1-0.4,0.5-1.3,1.4-2c1.2-1,2.5-1,2.9-1c2.5-1.3,4.5-1.7,4.9-1.1c0.4,0.6-0.6,2.2-2.3,3.8
	c2.6-1.4,5.8-0.7,7.5,1.5c1.9,2.5,1.3,6.3-1.5,8.3c-0.6,0.8-1.3,1.9-1.7,3.5c-0.4,1.7,0,2.5-0.5,3.3c-0.5,0.8-1.7,1.5-5,1.2
	c-1-0.4-2-0.8-3-1.2c-1.3-1-2.9-2.1-4.7-3.2c-1.2-0.7-2.3-1.2-3.3-1.7c1.4-1.6,2.7-3.2,4.1-4.8C219.3,185.9,221.1,184.6,220.6,179.3
	z"/>
<g>
	<g>
		<path class="st0" d="M122,337.4c1.9,1.6,3.8,3.4,6.1,4.4c0.2,0.1,0.8,0.4,1,0.4c0.1,0,0.6-0.5,0.6-0.6c0.5-0.5,1-0.9,1.5-1.4
			c1-0.9,1.9-1.8,2.9-2.7c3.8-3.7,7.5-7.4,11.1-11.3c7.2-7.5,14.3-15,22.4-21.5c4.6-3.7,9.4-7,14.6-9.8c0.2-0.1,0-2.2,0-2.5
			c0-0.3-0.2-2.4,0-2.5c-18.6,9.9-31.8,26.7-46.7,41.2c-1,1-2.1,2-3.1,3c-0.6,0.6-1.2,1.1-1.8,1.7c-0.3,0.3-1.1,1.3-1.5,1.4
			c-0.5,0.1-1.7-0.7-2.1-0.9c-0.6-0.3-1.2-0.7-1.8-1.2c-1.1-0.8-2.2-1.8-3.2-2.7c0.2,0.2,0,2.2,0,2.5c0,0.6,0,1.2,0,1.8
			C122,336.8,121.9,337.3,122,337.4L122,337.4z"/>
	</g>
</g>
<g>
	<g>
		<path class="st9" d="M187.6,196.7c-0.3,2.3-0.2,4.7-0.1,7c0.1,1.5,0.4,2.9,1.1,4.2c1.6,2.8,4.3,4.8,6,7.5c1,1.6,2,3.4,2.4,5.2
			c0.4,1.8-0.7,1.9,0.1-2.3c-0.1,0.5-0.1,0.9-0.2,1.4c-0.2,0.9-0.6,1.8-1,2.6c-1.5,2.9-3.8,5.3-6.2,7.4c-0.3,0.2,0,2.1,0,2.5
			c0,0.4,0.3,2.3,0,2.5c2.4-2.1,4.7-4.5,6.2-7.4c0.8-1.5,1.2-3.1,1.3-4.7c0.1-2.2,0.3-4.5-0.1-6.7c-0.7-3.5-3.2-6.7-5.5-9.3
			c-1-1.1-2.1-2.2-2.8-3.5c-0.4-0.6-0.7-1.3-0.9-2c-0.1-0.4-0.2-0.7-0.2-1.1c-0.3-2.2-0.3,3.9,0,1.8
			C187.9,200.1,187.4,198.4,187.6,196.7L187.6,196.7z"/>
	</g>
</g>
<g>
	<g>
		<path class="st10" d="M147.6,156.4c-0.6,2.1-0.7,4.1-0.7,6.3c0,2.6,0,4.7,1.5,6.9c3.1,4.4,6.7,8.4,10.1,12.6
			c3.4,4.1,6.2,8.6,9.9,12.5c1.8,1.9,3.7,3.6,5.5,5.4c1.5,1.4,2.8,3,4.6,4c1.4,0.7,3.1,1.4,4.7,1.1c2-0.3,3.1-2,3.7-3.8
			c0.2-0.7,0-1.8,0-2.5c0-0.7-0.3-1.8,0-2.5c-1,3.1-3.4,4.5-6.5,3.5c-3.6-1.1-6.1-4.3-8.7-6.8c-1.7-1.6-3.3-3.2-4.8-4.9
			c-1.6-1.8-3-3.8-4.4-5.7c-2.9-4-6.1-7.7-9.2-11.5c-1.7-2.1-3.5-4.3-5-6.5c-0.4-0.6-0.7-1.2-1-1.8c-0.1-0.3-0.1-0.5-0.2-0.8
			c-0.6-1.9-0.4,4.6-0.1,2.7c0.1-1,0.4-2,0.7-3c0.2-0.7,0-1.8,0-2.5C147.6,158.2,147.4,157.1,147.6,156.4L147.6,156.4z"/>
	</g>
</g>
<g>
	<g>
		<path class="st10" d="M135.5,172.1c5.5,3.4,10.6,7.3,15.2,11.7c4.3,4.2,7.9,8.9,11.6,13.7c2.9,3.8,6.2,7.7,10.7,9.5
			c1.1,0.4,2.3,0.8,3.5,0.9c0.6,0.1,1.2,0.1,1.8,0.2c0.4,0,0.7,0,1.1,0c0.2,0,1.4-0.2,1.6-0.1c0.2,0.2,0.4,1.2,0.4,1.5
			c0.2,0.6,0.4,1.2,0.6,1.8c0.5,1.4,1,2.8,1.6,4.1c2.9,6.5,7.2,12.3,12.5,17.1c-0.2-0.2,0-2.2,0-2.5c0-0.6,0-1.2,0-1.8
			c0-0.1,0.1-0.7,0-0.7c-4.7-4.2-8.5-9.2-11.4-14.8c-1.3-2.6-2.5-5.4-3.3-8.2c-0.1-0.2-0.2-1.3-0.4-1.5c-0.2-0.2-1.9,0.1-2.3,0.1
			c-1.3,0-2.5-0.2-3.8-0.5c-4.8-1.2-8.3-4.8-11.3-8.5c-3.6-4.5-6.9-9.3-11-13.4c-5.1-5.2-10.8-9.7-17-13.5c0.2,0.1,0,2.2,0,2.5
			C135.4,169.9,135.2,171.9,135.5,172.1L135.5,172.1z"/>
	</g>
</g>
<g>
	<g>
		<path class="st10" d="M185,178.1c-1.8,2.9-3.1,6-3.8,9.3c0,0.2,0,0.5,0,0.7c0,0.6,0,1.2,0,1.8c0,0.6,0,1.2,0,1.8
			c0,0.2,0.1,0.5,0,0.7c0.6-3.3,2-6.5,3.8-9.3c0.1-0.1,0-0.7,0-0.7c0-0.6,0-1.2,0-1.8c0-0.6,0-1.2,0-1.8
			C185,178.6,184.9,178.2,185,178.1L185,178.1z"/>
	</g>
</g>
<g>
	<g>
		<path class="st9" d="M210.3,195.6c1.5-1,3-2,4.5-3c1.3-0.9,2.7-1.7,3.9-2.9c1.1-1.1,2-2.4,2.3-3.9c0.1-0.7,0.1-1.4,0.1-2.1
			c0-1.3,0-2.6,0-3.8c-0.2-5.2-7.2-5-9.8-8.4c0,0,0,0.8,0,0.7c0,0.6,0,1.2,0,1.8c0,0.6,0,1.2,0,1.8c0,0.2-0.1,0.6,0,0.7
			c2.6,3.3,9.4,3.1,9.8,8.1c0-0.1,0-0.2,0-0.3c0.2-3.9,0.2-5-0.1-3.5c0,0.1,0,0.2-0.1,0.3c-0.1,0.3-0.2,0.6-0.3,0.9
			c-0.2,0.6-0.5,1.1-0.9,1.6c-0.7,1-1.7,1.8-2.6,2.5c-2.2,1.6-4.5,3-6.8,4.5c-0.2,0.1,0,2.2,0,2.5c0,0.6,0,1.2,0,1.8
			C210.3,194.9,210.3,195.5,210.3,195.6L210.3,195.6z"/>
	</g>
</g>
<g>
	<g>
		<path class="st9" d="M185.2,171.9c8.5,1.1,16.4,5.2,22.3,11.5c0,0,0-0.8,0-0.7c0-0.6,0-1.2,0-1.8c0-0.6,0-1.2,0-1.8
			c0-0.1,0.1-0.6,0-0.7c-5.8-6.3-13.7-10.4-22.3-11.5C185.4,166.9,185,171.9,185.2,171.9L185.2,171.9z"/>
	</g>
</g>
<g>
	<g>
		<path class="st9" d="M180.8,194c3.6-5.2,10.9-6.3,16.7-7.3c1.9-0.3,3.8-0.6,5.8-0.5c0.9,0,1.8,0.2,2.7,0.4
			c0.8,0.2,1.5,0.3,2.1-0.4c0.9-1.1,0.5-3.3,0.5-4.6c0-1.4,0.2-3-1.2-3.9c0.2,0.1,0,2.2,0,2.5c0,0.3-0.2,2.3,0,2.5
			c0.7,0.5,1.1,1.2,1.1,2.1c0-1.6,0-3.3,0-4.9c-0.1,1.6-1.1,2-2.5,1.8c-1.4-0.3-2.9-0.4-4.4-0.4c-2.9,0.1-5.8,0.7-8.6,1.3
			c-4.6,1-9.4,2.4-12.2,6.4c-0.3,0.4,0,2,0,2.5c0,0.6,0,1.2,0,1.8C180.8,193.4,180.9,193.9,180.8,194L180.8,194z"/>
	</g>
</g>
<g>
	<path class="st9" d="M201,177.7c1.3-3.8,5-5.9,8-5.2c2.1,0.5,3.9,2.4,4.4,4.4c0.3,1.1,0.2,2.1-0.2,4c-0.5,2.4-1,4.8-2.4,6.8
		c-0.4,0.6-3.3,3.8-6.2,2.8c-1.8-0.6-3.1-2.7-3.2-5.2"/>
	<g>
		<path class="st9" d="M201,180.2c0.9-2.5,2.9-4.6,5.5-5.2c2.7-0.6,5.3,0.9,6.5,3.3c0.3,0.6,0.4,1.1,0.6,1.7c0.3,1.5,0.2-5.1,0-3.5
			c0,0.1,0,0.2,0,0.4c-0.1,0.5-0.2,1-0.3,1.4c-0.3,1.6-0.7,3.2-1.3,4.7c-0.9,2.1-2.4,3.9-4.6,4.8c-3.4,1.3-5.8-1.9-6-5
			c0-0.3,0,0.4,0,0.3c0,0.5,0,1,0,1.5c0,1-0.1,2.1,0,3.1c0.2,2.9,2.1,6.2,5.5,5.4c2.5-0.6,4.3-2.9,5.2-5.2c1.5-3.9,1.7-7.9,1.5-12
			c-0.1-2.9-2.5-5.7-5.5-5.9c-3.3-0.3-6.1,2.3-7.2,5.3c-0.1,0.2,0,0.6,0,0.7c0,0.6,0,1.2,0,1.8c0,0.6,0,1.2,0,1.8
			C201,179.7,201.1,180,201,180.2L201,180.2z"/>
	</g>
</g>
<g>
	<g>
		<path class="st9" d="M208.4,193.2c0.3,1,0.9,2.2,2,2.6c0.8,0.3,2,0.1,2.3-0.8c0-0.1,0-0.1,0-0.2c0-0.2,0-0.3,0-0.5
			c0-0.6,0-1.2,0-1.8c0-0.6,0-1.2,0-1.8c0-0.1,0-0.3,0-0.4c0-0.1,0-0.2,0-0.3c-0.3,0.9-1.5,1.1-2.3,0.8c-1.1-0.4-1.6-1.6-2-2.6
			c0,0.1,0,0.1,0,0.2c0,0.2,0,0.3,0,0.5c0,0.6,0,1.2,0,1.8c0,0.6,0,1.2,0,1.8c0,0.1,0,0.3,0,0.4C208.4,193,208.4,193.1,208.4,193.2
			L208.4,193.2z"/>
	</g>
</g>
<g>
	<g>
		<path class="st17" d="M136.7,167.2c-7.5,3.7-13.1,9.9-15.2,18c-1.1,4.3-1.7,8.9-1.8,13.3c-0.1,2.4,0,4.8,0,7.1
			c0,1.8,0.1-3.4,0-1.6c0,0.5-0.1,0.9-0.1,1.4c-0.1,1.1-0.3,2.3-0.6,3.4c-1,4.6-2.9,8.9-5.5,12.8c-0.3,0.4,0,2,0,2.5
			c0,0.6,0,1.2,0,1.8c0,0.1,0.1,0.6,0,0.7c2.2-3.3,4-7,5-10.8c1.2-4.2,1.3-8.3,1.2-12.6c0-0.5,0-1,0-1.6c0-0.2,0-0.4,0-0.5
			c0-1.1-0.1,3.2,0,1.9c0.1-1.2,0.1-2.4,0.3-3.7c0.3-2.4,0.6-4.7,1.1-7.1c0.9-4.3,2.5-8.4,5.2-11.8c2.8-3.6,6.4-6.3,10.5-8.3
			c0.2-0.1,0-2.2,0-2.5C136.7,169.4,136.5,167.3,136.7,167.2L136.7,167.2z"/>
	</g>
</g>
<g>
	<g>
		<path class="st11" d="M147,194c-2-0.4-4.1-0.8-6.1-1.1c-1.8-0.2-3.7-0.2-5.1,1c-1.3,1.1-1.3,2.5-1.3,4.1c0,1.1,0,2.2,0,3.3
			c0,0.3,0,0.5,0.1,0.8c0,0.2,0.1,0.4,0.1,0.6c0.4,1.7-0.6,0,0.2-2.5c-2.1,7.5-3.8,15.4-7.4,22.4c-1.8,3.5-3.8,7-4.7,10.9
			c-0.2,0.7,0,1.7,0,2.5c0,0.8,0.2,1.8,0,2.5c1.7-6.7,6.2-12.3,8.1-19c1.1-3.9,2.3-7.8,3.4-11.7c0.5-1.8,0.8-3.4,0.8-5.3
			c0-1,0-2.1,0-3.1c0-0.9-0.3-1.8-0.4-2.7c0,0.1,0,0.2,0,0.3c0-0.1,0-0.3,0-0.4c0,1.6,0,3.1,0,4.7c0.6-5.6,9.2-2.8,12.5-2.1
			C146.7,199,147.3,194.1,147,194L147,194z"/>
	</g>
</g>
<g>
	<g>
		<path class="st3" d="M114.7,256.9c-1-1.8-1.6-3.5-2.1-5.5c0.7,2.9-0.3,3.9,0.1,2.3c0.1-0.5,0.3-0.9,0.5-1.3
			c0.3-0.7,0.7-1.3,1.1-1.8c2.4-2.9,6.1-4,9.7-3.6c4,0.4,7.5,2.4,10.7,4.7c1.6,1.2,3.2,2.4,4.8,3.7c1.3,1,3.8,2.3,4,4.2
			c0-1.6,0-3.3,0-4.9c-0.2,1.7-1.6,3.4-2.6,4.7c-1,1.3-2.2,2.6-3.4,3.7c-1.4,1.2-2.8,1.9-4.7,1.6c-1.8-0.3-3.6-0.9-5.3-1.4
			c-6.4-2-13.2-5.1-15.8-11.7c0.2,0.6,0,1.9,0,2.5c0,0.7-0.2,1.8,0,2.5c2.4,6.2,8.6,9.4,14.5,11.3c1.6,0.5,3.1,1,4.7,1.4
			c1.6,0.5,3.3,0.9,4.9,0c1.3-0.7,2.4-1.9,3.4-3c1.1-1.2,2.2-2.6,3.1-4c0.8-1.3,1.2-2.3,1.2-3.9c0-1.1,0-2.3,0-3.4
			c0-0.6-0.1-1.1-0.4-1.7c-0.8-1.2-2.4-2.1-3.5-2.9c-1.4-1.1-2.8-2.2-4.3-3.3c-5.1-3.7-12.4-7.4-18.5-3.6c-2.7,1.7-4.2,4.3-4.3,7.5
			c0,1.9-0.2,3.9,0.1,5.7c0.3,1.9,1.1,3.7,2.1,5.3c0-0.1,0-0.7,0-0.7c0-0.6,0-1.2,0-1.8c0-0.6,0-1.2,0-1.8
			C114.7,257.5,114.8,257.1,114.7,256.9L114.7,256.9z"/>
	</g>
</g>
<g>
	<g>
		<path class="st3" d="M124.4,244.2c0.1-2.3,0.3-4.9-0.2-7.2c-0.5-2.1-1.8-4-3.2-5.7c-2.8-3.4-5.5-6.7-7.8-10.5
			c-4.6-7.6-8-15.9-12.6-23.6c-2.3-3.8-4.9-7.6-8-10.7c-1.5-1.5-3.4-2.9-5.6-3.2c-2.3-0.3-4.6,0.7-6.5,2c-3.2,2.4-5,6.2-5.4,10.1
			c-0.2,2.3-0.2,4.6-0.1,6.9c0.1,2,0.4,3.9,1.1,5.8c3.9,10.2,14.6,15,24.3,18.1c-0.1,0,0-2.3,0-2.5c0-0.2,0.1-2.4,0-2.5
			c-8.2-2.6-16.6-6.2-21.7-13.4c-1.1-1.6-2-3.3-2.7-5.1c-0.3-0.9-0.6-1.8-0.7-2.8c-0.1-0.4-0.1-0.8-0.2-1.2
			c-0.1-0.8-0.1-2.2-0.1,0.9c0,1.8,0,2.3,0,1.3c0-0.2,0-0.4,0.1-0.6c0.4-3.5,1.9-7,4.6-9.4c3.2-2.8,7.5-3.7,11.1-1.1
			c3.2,2.4,5.8,6,7.9,9.3c4.5,6.8,7.7,14.3,11.5,21.4c2.1,4,4.4,7.8,7.2,11.4c1.4,1.8,3,3.5,4.4,5.4c0.7,0.9,1.3,1.8,1.7,2.8
			c1,2.1,0.7,5.7,0.8-0.9c0,1,0,2.1,0,3.1c0,0.5,0,1,0,1.5C124.4,244,124.4,244.4,124.4,244.2L124.4,244.2z"/>
	</g>
</g>
<g>
	<g>
		<path class="st3" d="M90.8,223.4c3.8,3.2,6.9,6.9,9.4,11.2c0-1.7,0-3.3,0-5C97.1,227.4,94,225.3,90.8,223.4
			c-3.1-1.7-6.4-3-9.8-4.1c-1.6-0.5-3.3-1.1-4.8-1.9c-1.7-0.9-3.1-2.1-4.5-3.4c-2.6-2.3-5.4-4.2-8.7-5.5c-2.8-1.1-7-2.8-9.2,0.2
			c-1.9,2.5-1.8,5.9-1.8,8.8c0,3.1,0.1,6.1,1.6,8.9c1.6,3,4.3,5,7.2,6.6c7.3,4,15.3,6.7,23.5,8.2c-0.3,0,0.3-4.9,0-5
			c-6.9-1.2-13.6-3.4-19.9-6.4c-2.9-1.4-6-2.8-8.4-5.1c-2-1.9-3.4-4.5-3.8-7.3c-0.1-0.3-0.1-0.6-0.1-0.9c-0.3-2.9-0.3,4.9,0,2
			c0.1-0.6,0.2-1.2,0.3-1.8c0.4-1.4,0.9-2.9,2.1-3.8c2.4-2,6.4-0.3,8.9,0.8c3.1,1.3,5.8,3.2,8.3,5.3c2.6,2.2,5,3.9,8.3,4.9
			c3.6,1.2,7.1,2.4,10.4,4.3c3.4,1.9,6.6,4.1,9.8,6.3c-0.2-0.1,0-2.2,0-2.5c0-0.6,0-1.2,0-1.8c0-0.2,0.1-0.6,0-0.7
			c-2.5-4.2-5.7-8-9.4-11.2c0.2,0.2,0,2.2,0,2.5c0,0.6,0,1.2,0,1.8C90.7,222.8,90.7,223.3,90.8,223.4L90.8,223.4z"/>
	</g>
</g>
<g>
	<g>
		<path class="st3" d="M76.8,234.3c-6.1,1.1-12.2,1.9-18.3,2.3c-4.5,0.3-11.1,0.7-12.2,6.2c-0.2,1.2-0.1,2.5-0.1,3.7
			c0,1.2-0.1,2.4,0.2,3.6c0.6,2,2.5,3.2,4.4,3.9c2.2,0.8,4.5,1,6.8,1.1c2.8,0.2,5.7,0.1,8.5-0.3c3.1-0.4,6.2-1.1,9.2-2
			c1.4-0.4,2.7-1,4-1.5c1.2-0.4,2.5-0.7,3.6,0.1c-0.2-0.1,0-2.2,0-2.5c0-0.3,0.3-2.3,0-2.5c-1.3-1-2.9-0.4-4.3,0.2
			c-1.7,0.7-3.4,1.3-5.1,1.8c-3.7,1.1-7.5,1.7-11.3,1.8c-3.4,0.1-7.1,0.1-10.4-0.8c-2.7-0.7-5.4-2.3-5.7-5.3c0,0.1,0,0.2,0,0.3
			c0,1.2,0,2.4,0,3.6c0-0.2,0.1-0.3,0.1-0.5c0.1-0.3,0.2-0.6,0.3-0.8c0.2-0.5,0.5-1,0.9-1.4c0.7-0.9,1.7-1.7,2.8-2.2
			c2.5-1.2,5.3-1.2,7.9-1.4c6.2-0.5,12.4-1.3,18.6-2.3C77.1,239.2,76.5,234.3,76.8,234.3L76.8,234.3z"/>
	</g>
</g>
<g>
	<g>
		<path d="M192.7,303.2c4.6,7.6,7.2,16.2,9.5,24.8c0.6,2.1,1.2,4.3,1.6,6.4c0.1,0.5,0.2,1.1,0.3,1.6c0.1,0.4,0,0.9,0.1,1.3
			c0,0.1,0.2-3.8-0.1-2.2c-0.2,1.1-0.4,2.1-0.7,3.2c-0.6,2.1-1.3,4.1-1.6,6.3c-0.4,2.2-0.2,4.5-0.2,6.7c0.1,7.1,5.2,13.7,12.7,14
			c7.2,0.2,13.5-5.3,13.9-12.5c0.2-4.2,0.4-8.8-1.8-12.6c-1-1.8-2.5-3.1-4.1-4.5c-0.7-0.6-1.4-1.3-2-2c-1.4-1.9-1.1-4.8-1.2,1.3
			c0-1.1,0-2.3,0-3.4c0-0.2,0-1.8,0-0.9c0,1.3,0,2.5,0,3.8c0,0.8,0,1.7,0.3,2.5c0.5,1.6,1.9,2.8,3.1,3.9c2.7,2.5,4.8,5,5.5,8.7
			c0.1,0.4,0.1,0.7,0.2,1.1c0.3,2.4,0.1-3,0.1-2.8c0,0.3,0,0.7-0.1,1c-0.1,0.9-0.3,1.8-0.6,2.6c-0.5,1.6-1.4,3.1-2.6,4.4
			c-2.3,2.6-5.7,4.1-9.1,4.4c-3.5,0.3-7-0.9-9.6-3.2c-2.8-2.5-4.1-5.7-4.6-9.3c0-0.2-0.2,4.3,0.1,2.6c0-0.2,0.1-0.4,0.1-0.6
			c0.1-0.5,0.2-1,0.3-1.5c0.3-1.1,0.6-2.2,0.9-3.3c0.5-1.9,1.1-3.8,1.2-5.8c0.1-2.3,0.1-4.6,0-6.9c-0.2-2.2-0.8-4.3-1.3-6.5
			c-2.5-9.4-5.1-19-10.1-27.4c0,0.1,0,0.7,0,0.7c0,0.6,0,1.2,0,1.8c0,0.6,0,1.2,0,1.8C192.7,302.6,192.6,303.1,192.7,303.2
			L192.7,303.2z"/>
	</g>
</g>
<g>
	<g>
		<path d="M208.7,246c10.8,4.2,21.5,9.5,30.9,16.3c3.8,2.8,7.4,5.8,11.1,8.9c4.9,4.1,9.9,8.2,14.8,12.3c2.9,2.5,5.8,5,8.5,7.8
			c1,1.1,2.1,2.1,2.8,3.4c0.4,0.7,0.5,1.4,0.8,2.2c-1-3.1,0.3-4.5-0.1-2.6c-0.1,0.5-0.3,1.1-0.6,1.6c-1.4,3-3.9,5.6-6.4,7.6
			c-1.2,1-2.5,1.8-3.9,2.6c-0.6,0.3-1.4,0.8-2.2,0.6c-0.3-0.1-0.6-0.2-0.8-0.4c-0.1-0.1-0.2-0.3-0.3-0.5c-0.4-1.4-0.4-0.3-0.1,3.2
			c0.2-1.6,0.2-3.2,0.2-4.8c0-1.4,0.1-2.8-0.6-4.1c-1.2-2.3-3.6-4.2-5.7-5.7c-2.5-1.8-5.3-3.2-8.1-4.5
			c-12.9-6.2-26.5-10.9-40.1-15.4c0.1,0,0,2.3,0,2.5c0,0.2-0.1,2.4,0,2.5c10.1,3.3,20.1,6.8,29.9,10.9c5.8,2.4,11.7,4.8,17,8.1
			c1.2,0.7,2.2,1.6,3.2,2.5c1.9,1.6,4,3.4,4.2,6c0-0.1,0-0.2,0-0.3c-0.1-6,0.1-4.7-0.1-3.4c0,0.2-0.1,0.4-0.1,0.6
			c0,0.3-0.1,0.7-0.1,1c0,1.4,0,2.8,0,4.2c0,0.7-0.1,1.5,0.4,2c0.7,0.8,1.8,0.4,2.6,0c3.8-1.9,7.3-5,9.6-8.5
			c1.2-1.8,1.8-3.6,1.8-5.7c0-2.3,0.4-4.8-0.7-6.9c-1-2-2.7-3.6-4.3-5.1c-1.8-1.7-3.6-3.4-5.5-5c-6.3-5.4-12.8-10.7-19.2-16
			c-4.7-3.9-9.6-7.7-14.8-10.9c-7.8-4.7-16-8.8-24.5-12.1c0.1,0,0,2.3,0,2.5C208.7,243.7,208.5,245.9,208.7,246L208.7,246z"/>
	</g>
</g>
<g>
	<g>
		<path class="st3" d="M76.5,248.7c-4.8,2.8-9.6,5.6-14.5,8.5c-1.2,0.7-2.3,1.3-3.5,2c-0.9,0.5-2,1-2.7,2c-0.5,0.8-0.4,1.8-0.4,2.7
			c0,1.1-0.3,2.7,0.1,3.8c0.3,0.9,1.4,1.4,2.2,1.8c1.1,0.5,2.2,1,3.4,1.2c2.4,0.6,5,0.5,7.4,0c4.3-0.9,8.3-2.9,11.8-5.6
			c3.8-3,6.9-6.8,9-11.1c0.3-0.6,0-1.9,0-2.5c0-0.6,0-1.2,0-1.8c0-0.2-0.1-0.6,0-0.7c-2.9,6-7.7,11-13.6,14.1
			c-3.3,1.7-6.9,2.9-10.6,3c-1.9,0-3.8-0.2-5.6-0.9c-1.3-0.5-3.7-1.3-4-2.8c0,1.1,0,2.1,0,3.2c0-0.1,0-0.2,0-0.3c0,0.6,0,1.2,0,1.8
			c0.4-1.6,2.4-2.4,3.7-3.2c1.9-1.1,3.9-2.3,5.8-3.4c3.8-2.2,7.6-4.5,11.4-6.7c0.2-0.1,0-2.2,0-2.5C76.5,251,76.3,248.9,76.5,248.7
			L76.5,248.7z"/>
	</g>
</g>
<g>
	<g>
		<path class="st3" d="M97.7,240.4c-2.7,1-5.4,2.4-7.3,4.6c-0.9,1-1.6,2.3-1.9,3.6c-0.5,1.8-0.3,3.8-0.3,5.7c0,2.5,0.5,5.1,2.7,6.6
			c2.3,1.5,5.5,0.8,7.8-0.2c2.6-1.2,4.7-3.3,6-5.8c0.1-0.1,0-0.7,0-0.7c0-0.6,0-1.2,0-1.8c0-0.6,0-1.2,0-1.8c0-0.2-0.1-0.6,0-0.7
			c-2,4-6.6,7.2-11.2,6.9c-2.4-0.2-4.2-1.8-5-4c-0.2-0.5-0.2-1-0.3-1.5c0.8,5.3-0.2,5.1,0,3.5c0-0.1,0-0.3,0.1-0.4
			c0.1-0.3,0.1-0.7,0.2-1c0.4-1.2,1-2.3,1.8-3.2c1.9-2.3,4.6-3.7,7.4-4.7c0.2-0.1,0-2.3,0-2.5C97.7,242.7,97.5,240.4,97.7,240.4
			L97.7,240.4z"/>
	</g>
</g>
<g>
	<g>
		<path class="st19" d="M128,54c-0.3-2.3-3-2.8-4.8-1.9c-2,1-3.4,3-4.2,5.1c-1,2.8-0.8,5.8-0.7,8.7c0,1.1,0.1,2.1,0.4,3.2
			c0.3,1,0.7,2.3,1.6,2.9c2,1.3,3.8-1.2,5.1-2.3c0,0,0-0.8,0-0.7c0-0.6,0-1.2,0-1.8c0-0.6,0-1.2,0-1.8c0-0.1-0.1-0.7,0-0.7
			c-1.1,0.9-2.3,2.6-3.9,2.7c-2,0.1-2.8-2.5-3.1-4.1c-0.1-0.5-0.1-1-0.2-1.5c-0.1-0.6-0.1,4.8,0,3.8c0-0.2,0-0.3,0-0.5
			c0-0.3,0.1-0.5,0.1-0.8c0.2-1,0.4-1.9,0.8-2.8c0.8-1.8,2.1-3.5,3.8-4.4c1.8-0.9,4.7-0.5,4.9,1.9c-0.1-0.8,0-1.7,0-2.5
			C128,55.7,128.1,54.9,128,54L128,54z"/>
	</g>
</g>
<g>
	<g>
		<path class="st15" d="M124.5,86.2c0.6,13.9,1.8,28.1,7.4,41c5.1,11.7,12.7,22.8,23.1,30.4c6,4.4,13,7.5,20.4,8.5c-0.2,0,0.3-5,0-5
			c-13.1-1.8-24.1-9.8-32.2-20c-8.3-10.4-13.9-22.7-16.3-35.8c-1.5-7.9-2-15.9-2.4-23.9c0-0.3,0,0.4,0,0.3c0,0.5,0,1,0,1.5
			C124.5,84.1,124.4,85.2,124.5,86.2L124.5,86.2z"/>
	</g>
</g>
<g>
	<g>
		<path class="st15" d="M182.3,34.6c5.7-3.4,12.6-3.9,19-2.3c6.2,1.5,11.5,5.1,16.3,9.1c9,7.6,15.6,17.9,19,29.1
			c0.8,2.8,1.5,5.7,2,8.6c0.1,0.7,0.2,1.5,0.3,2.2c0.1,1.2,0,4.8,0.2,0.3c-0.1,2-0.2,4-0.4,6c-0.8,6.8-2.6,13.4-5,19.8
			c-2.5,6.6-5.5,13.1-8.6,19.4c-1.5,3.1-3.1,6.2-4.7,9.3c-0.8,1.5-1.5,3-2.3,4.6c-0.7,1.4-1.3,3.2-2.2,4.5c-1.4,2-4.6,2.9-6.7,3.7
			c-3.3,1.3-6.5,2.6-9.8,3.6c-4.2,1.3-8.4,2.4-12.6,3.7c-4.1,1.2-7.8,3.3-11.8,4.6c-0.1,0.1,0,2.3,0,2.5c0,0.2,0.1,2.5,0,2.5
			c3.6-1.2,6.9-3.2,10.6-4.3c3.9-1.2,7.8-2.2,11.7-3.4c3.5-1.1,7-2.3,10.4-3.7c2.3-0.9,4.8-1.7,6.8-3.1c1.1-0.7,1.5-1.5,2.1-2.6
			c0.8-1.6,1.5-3.2,2.3-4.7c1.6-3.3,3.3-6.5,4.9-9.8c3.3-6.5,6.5-13.1,9.1-19.9c2.6-6.7,4.7-13.6,5.6-20.8c0.9-6.8,1-14-0.2-20.8
			c-2.2-12.1-7.8-23.5-16.4-32.3c-8.9-9.1-21.9-17.1-35.1-12.9c-1.6,0.5-3.1,1.2-4.6,2.1c-0.2,0.1,0,2.2,0,2.5
			C182.3,32.4,182.5,34.5,182.3,34.6L182.3,34.6z"/>
	</g>
</g>
<g>
	<g>
		<path class="st19" d="M191.2,62.1c1.9-2.8,3.2-5.9,3.9-9.3c0.7-3.4,0.6-7,0.5-10.4c0-0.1,0-0.2,0-0.3c-3.4,0.2-5.5-3.1-7.3-5.5
			c-2.2-2.9-4.9-5.4-8.1-7.4c-6.2-3.9-13.8-5.6-21-4.4c-14.2,2.5-24.9,13.6-30.5,26.5c-1.8,4.2-3.1,8.5-3.4,13.1
			c-0.4,5.3,0,10.6-1,15.9c-0.3,1.6,0.3,3.4,0,5c0.9-4.4,0.8-8.9,0.9-13.4c0.1-4.6,0.9-8.8,2.5-13.1c2.5-6.6,6.1-12.8,11-17.8
			c4.9-5,11-8.8,17.7-10.6c7.2-1.9,14.7-1,21.3,2.4c3.7,1.9,7,4.4,9.6,7.6c2.1,2.6,4.3,6.9,8.2,6.6c0-0.1,0-0.2,0-0.3
			c0,0.2,0.1-4.1,0-2.4c0,0.4-0.1,0.8-0.1,1.2c-0.1,0.6-0.1,1.1-0.2,1.7c-0.2,1.2-0.5,2.4-0.9,3.5c-0.7,2.3-1.8,4.4-3.1,6.4
			c-0.3,0.4,0,2,0,2.5c0,0.6,0,1.2,0,1.8C191.2,61.5,191.3,62,191.2,62.1L191.2,62.1z"/>
	</g>
</g>
<g>
	<g>
		<path class="st11" d="M117.5,307.4c12.6-8.6,26.1-16.1,40.2-22.1c3.6-1.6,7.3-3,11-4.4c0.2-0.1,0-2.3,0-2.5c0-0.2-0.2-2.5,0-2.5
			c-14.3,5.3-28,12-41,19.9c-3.5,2.1-6.9,4.4-10.3,6.7c-0.2,0.2,0,2.2,0,2.5C117.5,305.2,117.8,307.2,117.5,307.4L117.5,307.4z"/>
	</g>
</g>
<g>
	<g>
		<path class="st2" d="M119.5,266.2c-2.3,5.7-5.3,11-8.9,16c-0.1,0.1,0,0.7,0,0.7c0,0.6,0,1.2,0,1.8c0,0.2,0.1,2.5,0,2.5
			c5.5-0.8,11.1-1.7,16.6-2.5c0.3,0-0.2-5,0-5c-5.5,0.8-11.1,1.7-16.6,2.5c0,1.7,0,3.3,0,5c3.6-5,6.6-10.3,8.9-16
			c0.1-0.2,0-0.6,0-0.7c0-0.6,0-1.2,0-1.8c0-0.6,0-1.2,0-1.8C119.5,266.8,119.4,266.4,119.5,266.2L119.5,266.2z"/>
	</g>
</g>
<g>
	<g>
		<path class="st3" d="M102.4,239.3c-0.2,1.1-0.2,2.3-0.2,3.5c0,1.7-0.1,3.4,0.1,5.1c0.2,2.1,0.9,4.1,1.9,5.9c1,1.8,2.4,3.4,4.1,4.7
			c0.8,0.6,1.7,1.1,2.7,1.6c1,0.4,2.2,0.9,3.3,0.4c0.2-0.1,0-2.3,0-2.5c0-0.6,0-1.2,0-1.8c0-0.1,0-0.7,0-0.7
			c-1.6,0.7-3.8-0.6-5.1-1.4c-1.5-0.9-2.8-2.1-3.8-3.5c-1-1.4-1.8-2.9-2.4-4.5c-0.3-0.8-0.5-1.7-0.6-2.6c0-0.3-0.1-0.5-0.1-0.8
			c-0.1-1.8-0.1,5.1,0,3.3c0-0.5,0.1-1,0.2-1.5c0.1-0.8,0-1.7,0-2.5C102.4,241,102.2,240.1,102.4,239.3L102.4,239.3z"/>
	</g>
</g>
<g>
	<g>
		<path class="st11" d="M134.2,202.9c3.7,3.9,7.3,8,10.6,12.3c1.6,2.1,3.2,4.2,4.7,6.4c0.8,1.2,1.6,2.3,2.4,3.5
			c0.7,1.1,1.6,2.2,2.2,3.4c0-1.7,0-3.3,0-5c0,0.3-0.1,0.4-0.3,0.2c0,1.7,0,3.3,0,5c0,0,0-0.1,0-0.1c0.3-0.6,0-1.9,0-2.5
			c0-0.6,0-1.2,0-1.8c0-0.2-0.1-0.6,0-0.7c0,0,0,0.1,0,0.1c-0.3,0.6,0,1.9,0,2.5c0,0.6,0,1.2,0,1.8c0,0.1-0.1,0.7,0,0.7
			c0.4,0.4,0.3-0.5,0.3-0.7c0-1.1,0-2.2,0-3.2c0-0.5,0-1-0.1-1.5c-0.3-0.7-0.9-1.4-1.3-2c-1.9-2.8-3.8-5.6-5.8-8.3
			c-3.9-5.3-8.2-10.3-12.7-15.1c0.2,0.2,0,2.1,0,2.5c0,0.6,0,1.2,0,1.8C134.2,202.3,134.1,202.8,134.2,202.9L134.2,202.9z"/>
	</g>
</g>
<g>
	<g>
		<path class="st11" d="M147.8,215.7c-0.3,3.7-0.4,7.5-0.3,11.2c0,3.4,0.4,6.8,2,9.9c2.7,5.3,9.5,6.5,12.2,11.8c0-0.1,0-0.7,0-0.7
			c0-0.6,0-1.2,0-1.8c0-0.6,0-1.2,0-1.8c0-0.2,0.1-0.6,0-0.7c-2.2-4.3-7.1-5.8-10.3-9.1c-1.9-1.9-2.9-4.5-3.4-7.1
			c-0.1-0.7-0.3-1.5-0.3-2.2c0-0.4-0.1-0.8-0.1-1.1c0-0.2,0-0.4,0-0.6c0-1,0-0.3,0,2.3c0.1-1.7,0.2-3.3,0.3-5
			C148,219,147.7,217.3,147.8,215.7L147.8,215.7z"/>
	</g>
</g>
<g>
	<g>
		<path class="st10" d="M183,249.5c5.1-1.9,9.6-5,13.2-9.2c1.7-2,3.7-4.4,3.7-7.1c0-1.2,0-2.4,0-3.5c0-0.6,0-1.2-0.2-1.8
			c-0.3-0.8-1-1.3-1.7-1.7c-1.3-0.7-2.9-1-4.4-1.1c0.1,0-0.1,5,0,5c2.3,0.1,5.9,0.9,6.3,3.6c0-0.1,0-0.2,0-0.3c0,0.1,0,0.2,0,0.3
			c0-1.6,0-3.1,0-4.7c-0.2,2-1.7,3.8-2.8,5.3c-1.2,1.5-2.5,3-4,4.3c-2.9,2.6-6.3,4.6-10,6c-0.2,0.1,0,2.3,0,2.5
			C183,247.2,183.1,249.5,183,249.5L183,249.5z"/>
	</g>
</g>
<g>
	<g>
		<path class="st10" d="M199.3,235.8c1.8-1.4,3.4,0.6,3.8,2.2c0.1,0.3,0.1,0.5,0.1,0.8c0.1,1.3,0.2,0.6,0.1-2.3
			c-0.1,0.7-0.1,1.4-0.3,2.1c-0.2,1-0.5,2-0.8,3c-1.3,3.7-3.3,7.2-5.6,10.2c-4.6,6.1-10.9,10.8-18,13.6c-0.2,0.1,0,2.3,0,2.5
			c0,0.2,0.2,2.4,0,2.5c6.3-2.5,12-6.5,16.4-11.6c4.5-5.3,8.3-11.9,8.3-19c0-2.2,0.2-4.5-0.2-6.6c-0.4-1.7-2-3.9-3.9-2.4
			c-0.2,0.2,0,2.2,0,2.5C199.3,233.7,199.6,235.7,199.3,235.8L199.3,235.8z"/>
	</g>
</g>
<g>
	<g>
		<path class="st11" d="M117.6,306.8c2.1-8.7,5.9-17,11.2-24.2c4.8-6.5,11.3-13.1,19.9-13c8.7,0,16.2,5.8,21.7,12
			c5.9,6.4,10.8,13.7,18,18.8c6.8,4.8,15.2,8.3,19.3,15.9c0-0.1,0-0.7,0-0.7c0-0.6,0-1.2,0-1.8c0-0.8,0-1.7,0-2.5
			c-0.5-6.1-0.4-11.2-0.1-17.3c0.3-5.6,0.7-11.1,1.1-16.7c0.7-11,1.2-22.1,0.3-33.1c-0.3-3.5-0.1-10.9-5.6-9.5c-0.4,0.1,0.4,4.9,0,5
			c4.8-1.3,5.1,4.2,5.4,7.6c0.6,6,0.6,11.2,0.3,17c-0.5,11.1-1.7,22.2-1.9,33.4c-0.1,6.2-0.1,12.5,0.4,18.7c0-1.7,0-3.3,0-5
			c-3.6-6.8-10.7-10.3-16.8-14.3c-3.5-2.3-6.7-4.9-9.6-7.9c-3-3.2-5.7-6.6-8.6-10c-5.5-6.4-12.2-12.7-20.8-14.2
			c-8.7-1.5-15.8,3.7-21.1,10.1c-6.3,7.8-10.8,17.1-13.2,26.9c-0.2,0.7,0,1.7,0,2.5C117.6,305,117.8,306,117.6,306.8L117.6,306.8z"
			/>
	</g>
</g>
<g>
	<g>
		<path class="st0" d="M106.6,329.6c1.9-1.2,3.9-2.5,6.2-2.9c2-0.3,4.1,0.1,5.6,1.5c0,0,0-0.8,0-0.7c0-0.6,0-1.2,0-1.8
			c0-0.6,0-1.2,0-1.8c0-0.1,0.1-0.7,0-0.7c-1.5-1.4-3.6-1.8-5.6-1.5c-2.3,0.4-4.3,1.6-6.2,2.9c0,0,0,0.8,0,0.7c0,0.6,0,1.2,0,1.8
			c0,0.6,0,1.2,0,1.8C106.5,328.9,106.6,329.6,106.6,329.6L106.6,329.6z"/>
	</g>
</g>
<path class="st21" d="M180.4,292.9c-0.3-0.6-0.5-1.2-0.4-1.9v-0.4l-6.2-6.8l-4.1-5.3l-34.3,14.4l-0.5,3.9L122,314.5l-4,10l1.2-7.6
	l-11.9,1.5l-5,4.5c-0.3,0.6-0.9,1.6-1.2,3c-1.2,5.5,2.8,10.3,3,10.2c0.1-0.1,0.2-1.6,0.2-2c0-0.4,11.8,8.3,11.8,8.3l7.8-1.7l3.1-2.9
	l2.8,2.1l16.8-17.8l18.2-17.6l15.9-11.2C180.6,293.3,180.4,293.1,180.4,292.9z"/>
<g>
	<g>
		<path class="st0" d="M135.7,292.8c-7,8.3-13,17.5-17.6,27.3c0,1.7,0,3.3,0,5c0-0.2,0.1-0.4,0.1-0.6c0.3-1.6-0.3-3.4,0-5
			c0,0.2-0.1,0.4-0.1,0.6c-0.1,0.8,0,1.7,0,2.5c0,0.6,0,1.2,0,1.8c0,0.2,0.1,0.6,0,0.7c4.7-9.8,10.6-19,17.6-27.3
			c0.3-0.3,0-2.1,0-2.5c0-0.6,0-1.2,0-1.8C135.7,293.4,135.6,292.9,135.7,292.8L135.7,292.8z"/>
	</g>
</g>
<g>
	<g>
		<path class="st15" d="M79.8,329.9c1.1-1.4,0.7-3.5,0.7-5.1c0-1.6,0.1-3.1-1.1-4.3c-2.9-3.1-7.3,0-9.5,2.4c-6.2,6.8-12,14-18,21
			c-6.1,7.1-12.1,14.1-18.2,21.2c-5.3,6.2-12,12.8-13.4,21.2c-0.3,2.1-0.2,4.3-0.2,6.4c0,1.7,0.5,3.3,1.8,4.5
			c2.7,2.5,7.1,3.5,10.6,4.1c4.1,0.7,8.2,0.6,12.3-0.3c1.9-0.4,4-0.9,5.6-2c1.6-1.1,2.5-2.9,3.5-4.5c1.8-2.8,4.7-5.6,8.3-5.6
			c1.5,0,3,0.6,4.2,1.6c0.5,0.4,1,1,1.3,1.6c0.2,0.3,0.3,0.7,0.4,1c0,0.2,0,0.3,0.1,0.5c0.1,0.2,0.1-4.7,0-2.6c0,2-0.1,4.1,0,6.1
			c0.1,1.7,1.1,2.8,2.8,3.1c2.1,0.3,4.3,0.1,6.4,0c2.2-0.1,4.4-0.3,6.5-0.6c2.3-0.3,4.5-0.6,6.7-1.1c1.7-0.3,3.5-0.7,4.9-1.7
			c1.4-1,1.8-2.3,1.8-3.9c0-1.9,0.3-4.2-0.3-6c-1.2-3.4-4.9-5.7-8-7.2c-3.4-1.6-7.1-2.4-10.8-2.4c-1.9,0-3.7,0.2-5.5,0.7
			c0,1.7,0,3.3,0,5c0.3-0.2,0.6-0.5,0.9-0.7c0.3-0.2,0-2.2,0-2.5c0-0.3-0.3-2.3,0-2.5c-0.3,0.2-0.6,0.5-0.9,0.7
			c-0.3,0.2,0,2.2,0,2.5c0,0.2,0.1,2.5,0,2.5c4.8-1.1,9.9-0.8,14.5,1c4,1.5,9.7,4.6,10.1,9.4c0-0.2,0-0.5,0-0.7c0-1.1,0-2.1-0.1-3.2
			c0,0.2-0.1,0.5-0.2,0.7c-0.1,0.3-0.3,0.6-0.5,0.9c-0.3,0.4-0.8,0.8-1.3,1.1c-1.1,0.7-2.4,1-3.7,1.3c-3.5,0.8-7,1.3-10.6,1.6
			c-1.8,0.2-3.6,0.3-5.3,0.3c-1.6,0-3.3,0.2-4.9-0.1c-1.4-0.2-2-0.9-2.5-2.2c0-0.1,0-0.1,0-0.2c-0.2-1.4-0.2-0.4-0.1,2.9
			c0-0.3,0-0.6,0-1c0-1.1,0-2.1,0-3.2c0-2.6,0-4.9-2.4-6.5c-2.2-1.4-4.9-1.3-7.2-0.1c-2.5,1.3-4.1,3.7-5.6,6
			c-0.8,1.2-1.6,2.4-2.8,3.2c-1.3,0.8-2.9,1.3-4.3,1.6c-6.3,1.5-13,1.2-19.1-1c-2.5-0.9-5.4-2.2-6.3-4.9c-0.5-1.5,0.4-1.6-0.2,2
			c0.1-0.3,0.1-0.6,0.1-0.9c0.2-0.9,0.4-1.7,0.6-2.5c0.5-1.5,1.2-3,1.9-4.4c3.3-6,8.3-11.1,12.7-16.3c4.7-5.5,9.4-11,14.1-16.5
			c5.3-6.2,10.6-12.4,15.9-18.6c1.3-1.5,2.6-3.1,3.9-4.6c1.1-1.2,2.3-2.4,3.8-3.2c1.4-0.7,3.1-1,4.5-0.4c0.6,0.2,1.2,0.6,1.6,1.1
			c0.2,0.2,0.4,0.5,0.5,0.8c0.1,0.2,0.2,0.4,0.2,0.6c0.3,1.5,0.4,0.4,0.1-3.5c0-0.1,0-0.2,0-0.3c-0.1,0.6-0.3,1.1-0.6,1.6
			c-0.3,0.4,0,2,0,2.5c0,0.6,0,1.2,0,1.8C79.8,329.3,79.9,329.8,79.8,329.9L79.8,329.9z"/>
	</g>
</g>
<g>
	<g>
		<path class="st15" d="M79.7,342.6c-1.9,3.2-2.4,6.6-2.4,10.3c0,3.9,0.1,7.6,1.3,11.3c2.4,7.6,7.8,13.7,12.4,20c0-0.1,0-0.8,0-0.7
			c0-0.6,0-1.2,0-1.8c0-0.6,0-1.2,0-1.8c0-0.2,0.1-0.6,0-0.7c-3.9-5.5-8.3-10.6-11.1-16.8c-1.3-2.9-2.2-6-2.4-9.1c0-0.3,0-0.5,0-0.8
			c0,1.1,0,2.2,0,3.2c0.1-0.5,0.1-1,0.1-1.5c0.1-0.8,0.2-1.6,0.4-2.3c0.4-1.5,1-3,1.8-4.3c0.3-0.5,0-1.9,0-2.5c0-0.6,0-1.2,0-1.8
			C79.8,343.2,79.7,342.7,79.7,342.6L79.7,342.6z"/>
	</g>
</g>
<g>
	<g>
		<path d="M227.8,353.8c3.4-0.5,6.1,2.1,8.9,3.7c2.9,1.7,6.1,2.8,9.5,3.3c3.1,0.5,6.6,0.4,9.1-1.8c2.5-2.3,2.1-5.7,2-8.8
			c-0.1-6-5.7-10.8-10-14.2c-4.8-3.8-9.8-7.1-13.8-11.7c-5-5.7-8.5-12.5-12.1-19.1c0,0.1,0,0.7,0,0.7c0,0.6,0,1.2,0,1.8
			c0,0.6,0,1.2,0,1.8c0,0.2-0.1,0.6,0,0.7c2.9,5.5,5.9,11.1,9.7,16.1c3.6,4.8,7.9,8.5,12.6,12c4.3,3.2,8.9,6.6,11.7,11.3
			c0.3,0.6,0.7,1.2,0.9,1.8c0.2,0.4,0.4,0.8,0.5,1.3c0.1,0.4,0.1,1,0.3,1.3c0-0.5,0-1.1,0-1.6c0.1-1.7,0.1-2.2-0.1-1.3
			c-0.1,0.3-0.2,0.7-0.4,1c-0.3,0.6-0.7,1.2-1.2,1.7c-2.2,2.2-5.5,2.5-8.4,2.2c-3.5-0.4-6.9-1.5-10-3.2c-2.9-1.6-5.7-4.5-9.3-3.9
			C227.5,348.8,228,353.7,227.8,353.8L227.8,353.8z"/>
	</g>
</g>
<g>
	<g>
		<path class="st0" d="M208.1,291.3c5.2,1.1,9.6,5.1,11,10.2c0-0.2,0-0.6,0-0.7c0-0.6,0-1.2,0-1.8c0-0.6,0-1.2,0-1.8
			c0-0.2,0-0.5,0-0.7c-1.5-5.1-5.8-9.1-11-10.2c0,0,0,2.3,0,2.5C208.1,289,208,291.2,208.1,291.3L208.1,291.3z"/>
	</g>
</g>
<g>
	<g>
		<path class="st0" d="M119.7,315.1c-3.8-1.4-8-1.3-11.7,0.3c-3.8,1.6-7,4.6-7,8.9c0,2.3-0.3,4.8,0.4,7c0.6,2.2,2,4.1,3.4,5.9
			c2.7,3.3,6,6.6,10.1,7.9c3.8,1.3,8.5,0.5,11-2.9c0.3-0.4,0-2,0-2.5c0-0.6,0-1.2,0-1.8c0-0.1-0.1-0.6,0-0.7c-2,2.7-5.4,3.7-8.7,3.4
			c-3.7-0.4-7-2.7-9.6-5.2c-2.8-2.7-5.8-6.1-6.5-10c0-0.2-0.1-0.4-0.1-0.6c0.9,4.4-0.2,3.8,0.1,2.6c0.1-0.5,0.3-0.9,0.5-1.3
			c0.4-0.9,1-1.7,1.7-2.4c1.2-1.3,2.7-2.3,4.4-3c3.8-1.7,8.2-1.9,12.1-0.4c-0.1,0,0-2.3,0-2.5C119.7,317.4,119.9,315.2,119.7,315.1
			L119.7,315.1z"/>
	</g>
</g>
<g>
	<g>
		<path class="st12" d="M226.5,294.9c-2.4,0.6-4.9,1.1-7.4,1.5c-2.1,0.4-4,1.1-6,1.6c-0.6,0.2-1.3,0.3-2,0.2
			c-0.9-0.1-1.6-0.7-2.4-0.9c-1.6-0.4-1.3,1.7-1.3,2.7c0,1.7,0,3.5,0,5.2c0,0.3,0,0.6,0,0.9c0.1,1,0-1.8,0-0.6c0,0.7,0,1.4,0,2
			c0,1.4,0.1,3.8,2.2,3.4c2.9-0.6,5.9-1.1,8.8-1.7c3.2-0.6,6.3-1.2,9.5-1.6c0.2,0-0.2-5,0-5c-5.6,0.7-11.1,1.8-16.6,2.9
			c-0.9,0.2-2.4,0.8-3.2,0c-0.2-0.2-0.4-0.6-0.5-0.9c-0.1-0.2-0.1-0.4-0.1-0.5c-0.3-1,0,1,0,1.1c0-1.4,0-2.7,0-4.1
			c-0.1-1.2,0.4-1.4,0,2.8c0-0.2,0-0.4,0-0.6c0-0.2,0-0.5,0.1-0.7c0.2-0.4,0.6-0.5,1.1-0.3c0.8,0.2,1.4,0.7,2.2,0.9
			c0.6,0.1,1.3,0,1.9-0.1c2-0.4,3.9-1.2,5.9-1.6c2.6-0.5,5.2-0.9,7.7-1.6c0.1,0,0-2.3,0-2.5C226.5,297.2,226.4,294.9,226.5,294.9
			L226.5,294.9z"/>
	</g>
</g>
<g>
	<g>
		<path d="M151.8,140.8c0.4,2.5,1,5.5,3.5,6.7c2.5,1.2,4.8-1,7.3-0.9c0,0,0.1-5,0-5c-2.5-0.1-4.8,2-7.3,0.9
			c-2.5-1.2-3.1-4.2-3.5-6.7c0,0.2,0,0.5,0,0.7c0,0.6,0,1.2,0,1.8C151.7,139.1,151.6,140,151.8,140.8L151.8,140.8z"/>
	</g>
</g>
<g>
	<g>
		<path class="st19" d="M116.8,60.6c-3.2-1.9-7.3,1.5-9.6,3.5c-2.7,2.4-5,5.3-6.9,8.4c-4.3,7-7.4,14.8-9.3,22.8
			c-0.2,0.8,0,1.7,0,2.5c0,0.6,0,1.2,0,1.8c0,0.1,0.1,0.7,0,0.7c2.7-2.8,6.9-2.9,10.3-4.3c3.3-1.3,6.2-3.6,8.4-6.4
			c2.1-2.8,3.6-6.2,3.9-9.8c0.2-2.1,0.1-4.3,0.1-6.4c0-0.4,0-0.9,0-1.3c0-1.3,0-0.5,0,2.5c0-0.2,0.1-0.4,0.1-0.7
			c0.2-0.9,0.6-1.6,1.3-2.1c0.2-0.2,0-2.2,0-2.5c0-0.3-0.3-2.3,0-2.5c-1.4,1.1-1.4,2.9-1.4,4.5c0,1.3,0,2.6,0,3.9c0,0.4,0,0.9,0,1.3
			c0.1,2.8,0.2-4.9,0-2.1c-0.3,3.6-1.7,7.1-3.9,10c-2.2,2.9-5.1,5.3-8.5,6.6c-3.5,1.4-7.6,1.4-10.3,4.3c0,1.7,0,3.3,0,5
			c1.9-8,4.9-15.9,9.3-22.8c1.9-3.1,4.1-6,6.9-8.4c2.3-2,6.4-5.4,9.6-3.5c-0.2-0.1,0-2.2,0-2.5C116.8,62.8,117,60.7,116.8,60.6
			L116.8,60.6z"/>
	</g>
</g>
<g>
	<g>
		<path class="st19" d="M117.2,62.6c-6.9,3.1-12.1,9.4-14,16.7c-0.2,0.7,0,1.7,0,2.5c0,0.6,0,1.2,0,1.8c0,0.2,0.1,0.5,0,0.7
			c1.9-7.3,7.1-13.5,14-16.7c0.2-0.1,0-2.2,0-2.5c0-0.6,0-1.2,0-1.8C117.2,63.2,117.2,62.6,117.2,62.6L117.2,62.6z"/>
	</g>
</g>
<g>
	<g>
		<path class="st19" d="M108.4,92c0.4,3,1,5.9,1.9,8.8c0.4,1.4,0.9,2.8,1.5,4.1c0.1,0.3,0.2,0.6,0.4,0.9c0.4,0.7,0.1,0.4,0.3,0
			c0.4-0.6,0.5-1.7,0.8-2.3c1.9-5.4,4.6-10.5,6.4-15.9c1-2.9,1.5-5.9,1.7-9c0.3-3.9,0.4-8-0.2-11.8c-0.4-2.7-1.5-6.2-4.8-6.2
			c-0.1,0,0,5,0,5c2.5-0.1,3.7,2,4.4,4.1c0.4,1.4,0.6,2.8,0.6,4.2c0,0.6,0,2.3,0-0.5c0-2.8,0-1,0-0.4c0,0.8-0.1,1.5-0.2,2.3
			c-0.8,8.2-5.1,15.3-7.9,22.9c-0.3,0.7-0.5,1.4-0.7,2.1c0,0.1-0.2,0.8-0.3,0.8c0,0-0.5-1.2-0.5-1.3c-0.5-1.3-1-2.6-1.4-3.9
			c-0.9-2.9-1.6-6-2-9C108.6,88.6,108.2,90.4,108.4,92L108.4,92z"/>
	</g>
</g>
<g>
	<g>
		<path class="st2" d="M122.3,78.1c0.2,4.5,0.1,8.4-0.2,13c-0.3,4.5-0.8,9-1.5,13.4c-1.3,8.7-3.1,17.5-5.5,26
			c-2.2,7.9-5.1,15.6-6.4,23.7c-0.7,4.2-0.7,8.3-0.7,12.5c0,4.3,0.9,8.4,1.8,12.6c2.2,9.9,5.3,19.6,8.7,29.2c-0.2-0.6,0-1.8,0-2.5
			c0-0.7,0.2-1.8,0-2.5c-3-8.6-5.8-17.3-8-26.2c-1.1-4.4-2.1-8.9-2.5-13.5c0.3,3.2,0,1.5,0,0.6c0-0.6,0.1-1.2,0.1-1.9
			c0.1-1.1,0.2-2.2,0.4-3.2c0.3-2,0.7-4,1.2-5.9c2-8.1,5-16,6.8-24.1c2-8.8,3.8-17.6,4.9-26.5c1.1-9.8,1.3-19.8,0.8-29.6
			c0-0.3,0,0.4,0,0.3c0,0.5,0,1,0,1.5C122.3,76,122.2,77,122.3,78.1L122.3,78.1z"/>
	</g>
</g>
<g>
	<g>
		<path class="st10" d="M151,204.7c0.7,7.5,5.8,14.2,12.8,17c-0.1,0,0-2.3,0-2.5c0-0.2,0.2-2.4,0-2.5c-7-2.8-12.1-9.5-12.8-17
			C151.1,201.4,150.8,203.1,151,204.7L151,204.7z"/>
	</g>
</g>
<g>
	<g>
		<path class="st10" d="M151.1,206c0.9,4.5,3.8,8.5,7.9,10.5c0,0,0-0.8,0-0.7c0-0.6,0-1.2,0-1.8c0-0.6,0-1.2,0-1.8
			c0-0.1,0-0.7,0-0.7c-4.1-2.1-7.1-6-7.9-10.5c0,0.2,0,0.6,0,0.7c0,0.6,0,1.2,0,1.8c0,0.6,0,1.2,0,1.8
			C151.1,205.5,151.1,205.7,151.1,206L151.1,206z"/>
	</g>
</g>
<g>
	<g>
		<path class="st12" d="M89.4,330c-4.1-1-8.4-1.7-12.6-2.1c-3.5-0.3-7,0.9-7.1,5c0,1.9-0.3,4.1,0.2,5.9c0.4,1.7,1.6,3.1,3,4.1
			c3,2.3,6.8,3.8,10.4,4.8c4.3,1.3,8.9,1.8,13.4,1.5c0.1,0-0.1-5,0-5c-5.4,0.3-10.8-0.5-15.9-2.3c-2.4-0.9-4.8-2-6.9-3.3
			c-1-0.7-2-1.5-2.8-2.4c-1.5-1.9-1.2-5.6-1.3,0.7c0,0.1,0,0.2,0,0.3c0.4-4,4.5-4.6,7.8-4.2c4,0.5,8,1.1,11.9,2
			C89,334.9,89.8,330.1,89.4,330L89.4,330z"/>
	</g>
</g>
<g>
	<g>
		<path class="st0" d="M94.4,323.4c-2.9,1.6-5,4.5-5.5,7.8c-0.3,2.1-0.2,4.3-0.1,6.4c0,1.6,0.3,3.3,1.1,4.8
			c2.8,5.8,12,10.6,17.5,5.8c0.3-0.2,0-2.1,0-2.5c0-0.6,0-1.2,0-1.8c0-0.1-0.1-0.7,0-0.7c-4.9,4.3-12.3,0.9-16-3.5
			c-1-1.2-1.7-2.5-2.2-4c-0.2-0.8-0.3-1.5-0.4-2.3c-0.1,4-0.1,5,0,3.2c0-0.2,0-0.3,0.1-0.5c0.1-0.4,0.2-0.8,0.3-1.2
			c0.8-2.7,2.7-5,5.2-6.4c0.2-0.1,0-2.2,0-2.5C94.4,325.6,94.2,323.5,94.4,323.4L94.4,323.4z"/>
	</g>
</g>
<g>
	<g>
		<path d="M157.4,98.7c1.9,6.8,8.9,11.6,15.9,10.9c0.2,0-0.1-5,0-5c-7,0.7-14-4.1-15.9-10.9c0,0.2,0,0.6,0,0.7c0,0.6,0,1.2,0,1.8
			c0,0.6,0,1.2,0,1.8C157.4,98.1,157.3,98.4,157.4,98.7L157.4,98.7z"/>
	</g>
</g>
<g>
	<g>
		<path d="M207.7,110.7c5.4-0.6,10.3-4,12.7-8.9c0.1-0.1,0-0.7,0-0.7c0-0.6,0-1.2,0-1.8c0-0.6,0-1.2,0-1.8c0-0.2-0.1-0.6,0-0.7
			c-2.4,4.9-7.3,8.3-12.7,8.9C207.5,105.7,207.9,110.7,207.7,110.7L207.7,110.7z"/>
	</g>
</g>
<g>
	<g>
		<path class="st11" d="M139.2,272.5c9.9-6.1,18.3-14.5,23-25.3c0.3-0.6,0-1.8,0-2.5c0-0.6,0-1.2,0-1.8c0-0.2-0.1-0.6,0-0.7
			c-4.7,10.8-13,19.2-23,25.3c-0.2,0.1,0,2.2,0,2.5C139.2,270.3,139.4,272.4,139.2,272.5L139.2,272.5z"/>
	</g>
</g>
<g>
	<g>
		<path d="M251.6,302.8c-3.1-0.8-5.8-2.6-7.7-5.1c-1-1.2-1.7-2.6-2.3-4.1c-0.3-0.7-0.5-1.5-0.6-2.2c-0.1-0.4-0.1-0.8-0.2-1.1
			c0-0.3,0-0.5-0.1-0.8c0-0.5-0.1,5.4,0,3.3c0.1-1,0-2.1,0-3.1c0-0.5,0-1,0-1.5c0,0,0-0.5,0-0.3c-0.1,1.7-0.1,3.5,0,5.2
			c0,1,0,1.9,0.2,2.8c0.3,1.8,1,3.6,2,5.2c1.9,3.2,5,5.6,8.7,6.5c-0.1,0,0-2.3,0-2.5C251.6,305.1,251.7,302.8,251.6,302.8
			L251.6,302.8z"/>
	</g>
</g>
<g>
	<g>
		<path d="M243.4,305.3c-3-2.1-5.3-4.9-6.9-8.2c-0.8-1.6-1.3-3.3-1.7-5c-0.2-0.9-0.3-1.8-0.4-2.8c-0.2-2.4-0.2,4.6,0,2.2
			c0-0.6,0.1-1.1,0.2-1.7c0.2-1.6-0.2-3.4,0-5c-0.4,2.8-0.3,5.6-0.2,8.4c0.1,2.2,0.4,4.3,1.1,6.4c1.4,4.3,4.2,8.1,7.9,10.7
			c-0.2-0.1,0-2.2,0-2.5c0-0.6,0-1.2,0-1.8C243.4,305.9,243.4,305.3,243.4,305.3L243.4,305.3z"/>
	</g>
</g>
<path class="st12" d="M226.2,298.7c-0.2-0.5-0.4-1.1-0.3-1.7v-0.1c0-0.1,0-0.2,0-0.2c-6,0.8-12,1.5-17.9,2.3
	c-0.1,0.2-0.3,0.4-0.4,0.8c-0.3,0.8-0.2,1.5-0.2,2.6c0.1,1.7,0.2,2.6,0.2,2.8c-0.1,1.2-0.4,1.7-0.1,2.3c0.3,0.4,0.7,0.6,1.1,0.7
	l18.3-3.1C225.9,302.7,226,300.3,226.2,298.7z"/>
<g>
	<g>
		<path d="M234,286.5c-2.8,2.2-5.7,4.7-7.3,8c-0.8,1.6-0.9,3.2-0.9,5c0,1.9-0.3,4,0.6,5.7c1,1.9,2.9,3,4.7,3.9c1.9,1,3.9,1.6,6,1.9
			c4.1,0.7,8.4,0.2,12.4-0.5c4.5-0.9,9-2.1,13.5-2.8c0.3,0-0.2-5,0-5c-7.3,1.1-14.4,3.8-21.9,3.7c-3.8,0-7.7-0.9-11-2.8
			c-1.6-0.9-3.1-2-3.9-3.7c-0.1-0.3-0.2-0.6-0.3-1c0-0.1,0-0.3-0.1-0.4c0,0.6,0,1.2,0,1.8c-0.1,1.9-0.1,2.4,0,1.5
			c0.2-0.7,0.3-1.4,0.6-2c1.5-3.4,4.6-6,7.5-8.3c0.2-0.2,0-2.2,0-2.5C234,288.7,233.7,286.7,234,286.5L234,286.5z"/>
	</g>
</g>
<g>
	<g>
		<path d="M120,314.4c-0.2-5.7-7.5-6.8-11.9-5.9c-5,1.1-10.5,4.3-12.5,9.3c-1,2.4-1,4.9-1,7.5c0,2.7,0,5.3,0.9,7.9
			c1.7,5.2,5.6,9.3,9.7,12.6c2.3,1.8,4.8,3.9,7.8,4.4c2.5,0.4,5.3-0.4,6.5-2.8c0.3-0.5,0-1.9,0-2.5c0-0.6,0-1.2,0-1.8
			c0-0.2-0.1-0.6,0-0.7c-0.9,1.8-2.9,2.8-4.9,2.9c-2.4,0.1-4.6-1.1-6.5-2.4c-4-2.7-7.8-6.1-10.4-10.2c-1.3-2-2.2-4.1-2.6-6.5
			c-0.1-0.6-0.2-1.3-0.3-1.9c-0.2-2-0.2,4.6,0,2.6c0-0.4,0.1-0.7,0.1-1.1c0.2-1.1,0.5-2.3,0.9-3.3c1.9-4.4,6.6-7.3,11.1-8.7
			c2.6-0.8,5.4-1,8-0.1c2.4,0.8,4.9,2.7,5,5.5c0,0.3,0-0.4,0-0.3c0-0.5,0-1,0-1.5C120,316.4,120,315.4,120,314.4L120,314.4z"/>
	</g>
</g>
<g>
	<g>
		<path class="st15" d="M228.3,115.4c0.1,1.7,0.1-3.1,0-2.6c0,0.3,0,0.7-0.1,1c0,0.5-0.1,1-0.2,1.4c-0.2,1.1-0.4,2.1-0.8,3.2
			c-0.6,1.9-1.4,3.7-2.5,5.4c-2.1,3.4-5.1,6.3-8.7,8.3c-4.3,2.3-9.2,2.8-13.9,3.1c-5.4,0.3-10.9,0.3-16.4,0
			c-9.9-0.7-19.7-2.9-28.9-6.8c-4.5-1.9-8.9-4.1-13-6.7c-4-2.5-7.9-5.1-9-10c-0.1-0.7-0.2-1.3-0.3-2c-0.1-0.6,0-2.1-0.1,0.6
			c0,1.5,0,1.8,0,0.9c0-0.1,0-0.3,0-0.4c0.1-1.2,0.1-2.5,0.4-3.7c0.5-1.9,1.7-2.8,3.6-2.3c3.8,1,6.6,4.2,10.2,5.7
			c-0.1,0,0-2.3,0-2.5c0-0.2,0.2-2.4,0-2.5c-3.5-1.5-6.2-4.5-9.9-5.6c-4.7-1.4-4.3,5.4-4.3,8.3c-0.1,5.2-0.4,10.7,3.7,14.6
			c1.9,1.8,4.2,3.2,6.3,4.5c2.3,1.4,4.7,2.7,7.1,3.9c9.7,4.8,20.2,7.8,30.9,8.9c6,0.6,12.1,0.7,18.1,0.4c5.3-0.2,10.8-0.7,15.5-3.3
			c4.4-2.4,7.9-6.2,9.9-10.7c2.3-4.9,2.4-10.3,2.1-15.6c0-0.3,0,0.4,0,0.3c0,0.5,0,1,0,1.5C228.2,113.3,228.2,114.4,228.3,115.4
			L228.3,115.4z"/>
	</g>
</g>
<g>
	<g>
		<path class="st10" d="M183.6,180.7c-0.4,0.5-0.6,1-0.6,1.7c-0.1,1.4,0,2.8,0,4.2c0,1.7,0.6,3.1,2,4.2c1.4,1.2,3.2,2.1,3.9,3.9
			c0.1,0.2,0.1,0.4,0.2,0.6c0.5,1.6,0.4-4.7,0-3.1c-0.1,0.4-0.2,0.9-0.4,1.3c-0.4,1-0.9,1.9-1.5,2.7c-2.4,3.3-5.5,6.5-8.7,9.1
			c-3.1,2.6-6.6,4.6-10.6,5.6c-4.3,1-9,0.7-12.8-1.7c0.2,0.1,0,2.2,0,2.5c0,0.3-0.2,2.3,0,2.5c6.9,4.3,15.6,1.9,21.7-2.6
			c3.3-2.4,6.1-5.4,8.8-8.4c1.3-1.5,2.6-3.1,3.2-5c0.7-2,0.4-4.5,0.3-6.5c-0.1-2.1-1.1-3.4-2.7-4.6c-1.6-1.2-3.3-2.4-3.4-4.6
			c0,1.6,0,3.1,0,4.7c0-0.1,0-0.2,0-0.3c0,0.1,0,0.2,0,0.3c0.1-0.6,0.3-1,0.6-1.4c0.3-0.3,0-2,0-2.5c0-0.6,0-1.2,0-1.8
			C183.6,181.3,183.5,180.8,183.6,180.7L183.6,180.7z"/>
	</g>
</g>
<g>
	<g>
		<path class="st22" d="M160.7,247c7.3-2.6,14.6-5.2,21.9-7.5c3.9-1.2,7.3-3.5,11.2-4.6c1.6-0.5,2.8-1.4,3-3.1
			c0.2-2,0.2-4.2-0.1-6.2c0.2,1.6-0.2,3.4,0,5c0.2,1.5,0.2,0.3,0-3.4c0,0.2-0.1,0.5-0.2,0.7c-0.1,0.3-0.4,0.6-0.6,0.9
			c-0.5,0.5-1.1,0.8-1.8,1c-1.5,0.5-3,1-4.5,1.7c-1.7,0.8-3.4,1.7-5.1,2.4c-1.3,0.5-2.6,0.8-3.9,1.3c-6.7,2.1-13.4,4.5-20,6.9
			c-0.1,0.1,0,2.3,0,2.5C160.7,244.7,160.8,247,160.7,247L160.7,247z"/>
	</g>
</g>
<g>
	<g>
		<path class="st19" d="M178.3,142.9c4.5,1.6,9.7-2,10-6.7c0.1-1,0-2.1,0-3.1c0-0.5,0-1,0-1.5c0,0,0-0.5,0-0.3
			c-0.3,4.6-5.7,8-10,6.5c0,0,0,0.8,0,0.7c0,0.6,0,1.2,0,1.8c0,0.6,0,1.2,0,1.8C178.3,142.2,178.3,142.9,178.3,142.9L178.3,142.9z"
			/>
	</g>
</g>
<path class="st7" d="M134.2,209.5c0,0,6.2,12,11.3,24.3c2.8,6.7,7.9,12.6,6.4,20.2c-0.4,2.3-1.3,4-1.9,5.2c1.8-1.6,3.9-3.7,5.9-6.2
	c1.9-2.3,3.3-4.5,4.5-6.5l-7.3-7.7c0,0-5.6-5.7-5.5-9c0,0,0.1-10.6,0-11.1c-0.1-0.5-6.8-9-12.7-15.3c0,0-0.3,3.4-1,5.3L134.2,209.5z
	"/>
<path class="st7" d="M147.4,156.8l0.6-5.2c0,0-4.9-5.2-5.5-6.3c0,0-4.6-6.3-6.7-10c0,0-4-7.4-5.1-10.7c0,0-2.4-6.6-2.5-7.7
	c-0.2-1.1-1.1-4-2.1-9.9c0,0-1.2-8.6-1.2-10.4l-0.6-12.6c0,0,0.8-14,0.7-14.2l-2.2,1.8l0.2,62.1c-1.1,4.7-2.1,10.4-2.3,16.9
	c-0.4,11,1.4,20.3,3.3,26.8c0,0,8.1-7.2,8.1-7.2c0,0,2.9-2.6,2.9-2.6c0.6-0.5,1.1-1,1.7-1.5c0,0,1.5-1.3,1.5-1.3
	C138.4,164.9,147.4,156.9,147.4,156.8z"/>
<image style="overflow:visible;" width="2848" height="506" xlink:href="Screen Shot 2023-02-20 at 19.01.44.png"  transform="matrix(0.2722 0 0 0.2722 -472.1217 -161.812)">
</image>
</svg>
