<?xml version="1.0" encoding="utf-8"?>
<!-- Generator: Adobe Illustrator 24.0.1, SVG Export Plug-In . SVG Version: 6.00 Build 0)  -->
<svg version="1.1" id="Layer_1" xmlns="http://www.w3.org/2000/svg" xmlns:xlink="http://www.w3.org/1999/xlink" x="0px" y="0px"
	 viewBox="0 0 198.4 198.4" style="enable-background:new 0 0 198.4 198.4;" xml:space="preserve">
<style type="text/css">
	.st0{fill:#25325B;}
	.st1{fill:#51261D;}
	.st2{fill:#F5A576;}
	.st3{fill:#E70E71;}
	.st4{fill:#A6A8AB;}
	.st5{fill:#72382A;}
	.st6{fill:#4E2915;}
	.st7{fill:#C86247;}
	.st8{fill:#FFFFFF;}
	.st9{fill:#F6CF0E;}
</style>
<circle class="st0" cx="96.4" cy="117.7" r="76.4"/>
<path class="st1" d="M124.1,188.8C124.1,188.8,124.1,188.8,124.1,188.8c0.2-0.1,0.3-0.1,0.5-0.2c0.6-0.3,1.1-0.6,1.7-0.8
	c1.6-1,3.4-1.8,5.2-2.6V84.8l-69.3,7.1c0.3,0.8,1.5,78.4,1.7,94.2c1.4,0.3,2.6,0.8,3.9,1.3c0.8,0.4,1.6,0.8,2.4,1.2
	c0.2,0.1,0.3,0.2,0.5,0.2h52.2C123.3,188.8,123.7,188.8,124.1,188.8z"/>
<path class="st2" d="M53.3,70.3c0,0-7.7-1.2-5.8,4.4c0,0,0.9,15.7,9,10.8c0,0,6.1,19.7,34.9,21.6v7.6c0,0,8.9,10.9,13.3,0.7v-8.7
	c0,0,23.6-1.7,29.9-23.6c0,0,7.4,2.8,7.7-12.1c0,0,2.2-9.8-6.4-4.8c0,0,0.4-50-34.1-36.2C101.7,29.9,53,8.9,53.3,70.3z"/>
<path class="st3" d="M132.7,139.9c-0.2-0.3-0.3-0.7-0.4-1.1c-0.8-4.1-1.2-8.3-2.4-12.4c-0.4-1.1-0.3-2.2,0-3
	c-1.9-2.1-3.5-3.7-3.5-3.7l-17-5.4h-1.1c-0.9,0.7-1.8,1.2-2.8,1.7c-1,0.9-2,1.7-3.3,2c0,0-0.1,0-0.1,0c-0.6,0.2-1.1,0.4-1.7,0.5
	c-2,0.8-4.1,1-6.1,0.4c-1.9-0.6-3.9-2.1-5.2-4l-19.4,5.6l-9.5,6c3,2.5,2,8.7-2.9,8.9l9.7,13.2l5.6,4.1l-1.7,35.5
	c9.7,1.7,19.2,4,29.1,3.4c6.9-0.4,13.5-2,20.2-3.7l-2.6-35.7l6.7-1.2C124.3,151.2,128.8,144.8,132.7,139.9z"/>
<path class="st4" d="M90.7,114.3c0,0,5.5,7.9,14.6,0.8l2,0.4c0,0-9.4,11-17.5,0.7l-0.8-0.7L90.7,114.3z"/>
<path class="st3" d="M89.1,115.5c0,0-21.5,2.1-22.6,7.7c-1.1,5.6,0.8,4.8,0.8,4.8l14.4-4.2l8.3-7L89.1,115.5z"/>
<path class="st2" d="M163.5,135.8c0,0-3.1,7.4,6.1,6.6c0,0,10.6-8.3,0.7-9.7c0,0-3.5-0.1-3-1.9c0,0,5.2-3.3,8.7,1.6c0,0,2,3.3,1.2,5
	c0,0,0.7,1.6,2.3-0.8c0,0,4.5-5.4,2.3-11.7c0,0-0.3-3.5,1.8-3.4c0,0,2.8,0,2,9.7c0,0-1.9,4.9-4,7.5c0,0,0.2,1.8,3-0.9
	c0,0,3.9-5.3,4.8-9.4c0,0,2.5-3.3,3.2,1.5c0,0-0.8,4.8-8.3,12.2c0,0,9.9-6.1,8.6-3.4c0,0-4,2-9,7.7c-0.3,0.3-5,6.6-8.7,7.6
	c0,0-11.5,3.1-14.3-12.4C160.8,141.4,160.8,132.5,163.5,135.8z"/>
<path class="st2" d="M35.7,131.8c0,0,1.7,8.8-7.4,7.2c0,0-9.1-10.3,1.2-11.2c0,0,3.5,0.1,3.4-2c0,0-4.6-4.2-9.1,1.2
	c0,0-2.7,3.7-2.2,5.7c0,0-1,1.7-2.2-1.1c0,0-3.5-6.6,0-13.6c0,0,1-4-1.1-4c0,0-2.8-0.2-3.9,11c0,0,0.9,5.8,2.6,9c0,0-0.6,2-2.8-1.3
	c0,0-2.8-6.4-2.9-11.2c0,0-1.8-4-3.5,1.5c0,0-0.2,5.6,6,14.6c0,0-8.8-7.7-8-4.6c0,0,3.6,2.6,7.5,9.4c0.2,0.4,3.7,7.9,7.2,9.4
	c0,0,11,4.3,16.9-13.4C37.3,138.4,39.1,128.2,35.7,131.8z"/>
<path class="st2" d="M29.7,177.4"/>
<path class="st2" d="M64.1,138.8l-15.3,28.1l2.7,5.5c0.5,0.2,0.9,0.5,1.2,0.7l11.9-15.9C65.5,151,65.5,144.8,64.1,138.8z"/>
<path class="st2" d="M129.9,135.2c-0.6,0.8-1.1,1.7-1.6,2.6c-0.7,4.9-1,9.9-1,15c0,1.2-0.4,2.1-0.9,2.9l6.4,16.2l4.8-6.3
	L129.9,135.2z"/>
<g>
	<g>
		<path class="st5" d="M89.1,15.2c2.1,1.4,3.9,3.6,4.8,6c0.2,0.5,0.6,0.9,1.2,0.9c0.5,0,1.1-0.4,1.2-0.9c0.9-3.6,1.9-7.8,5.1-10.1
			c0.5-0.4,0.8-1.1,0.4-1.7c-0.3-0.5-1.2-0.8-1.7-0.4c-3.8,2.7-5.1,7.3-6.2,11.6c0.8,0,1.6,0,2.4,0c-1.2-3-3.2-5.6-5.9-7.5
			c-0.6-0.4-1.4-0.1-1.7,0.4C88.3,14.1,88.6,14.8,89.1,15.2L89.1,15.2z"/>
	</g>
</g>
<ellipse class="st6" cx="75.4" cy="68.9" rx="3.4" ry="5"/>
<ellipse class="st6" cx="113.7" cy="70.2" rx="3.4" ry="5"/>
<g>
	<path class="st6" d="M71.4,56.1c2-1.3,4.7-1.3,7-0.5c0-0.4-0.1-0.9-0.1-1.3c0-0.1,0-0.2-0.1-0.2c0-0.1-0.1-0.1-0.2-0.1
		c-2-0.8-4.4-0.7-6.3,0.2c-0.2,0.1-0.4,0.2-0.6,0.4c-0.3,0.4-0.1,1.1,0.4,1.3"/>
</g>
<g>
	<path class="st6" d="M111.4,56.3c0,0.3,0,0.5,0,0.8c2.5-0.3,5.1,0.7,6.8,2.6c0.2-0.3,0.4-0.6,0.7-0.8c-0.9-0.8-1.9-1.7-3-2.2
		c-1.4-0.6-3-0.7-4.6-0.8"/>
</g>
<g>
	<g>
		<path class="st7" d="M90.5,79.5c1.4-1.3,3.7-1.3,5.1,0.1c0.6,0.6,1.5-0.3,0.9-0.9c-0.9-0.9-2.1-1.4-3.4-1.4
			c-1.3,0-2.5,0.5-3.4,1.3C89,79.2,89.9,80.1,90.5,79.5L90.5,79.5z"/>
	</g>
</g>
<g>
	<g>
		<path class="st7" d="M79.2,86.7c-0.1-0.8,2.4,0.7,2.5,0.8c0.6,0.3,1.2,0.6,1.8,0.9c1.1,0.5,2.3,0.9,3.5,1.3c2.4,0.7,5,1,7.6,1
			c2.5-0.1,5-0.5,7.3-1.2c1.2-0.4,2.3-0.8,3.4-1.4c0.8-0.4,4.5-3,4.7-1c0.1,0.8,1.3,0.8,1.2,0c-0.1-1.1-0.9-1.9-2.1-2
			c-1.6-0.2-3,1.1-4.4,1.8c-3.2,1.6-6.7,2.5-10.3,2.5c-3.6,0.1-7.2-0.6-10.4-2.1c-0.7-0.3-1.4-0.7-2.1-1.1c-0.7-0.4-1.3-0.9-2.1-1.1
			C78.7,85,77.8,85.9,78,87C78.1,87.8,79.3,87.5,79.2,86.7L79.2,86.7z"/>
	</g>
</g>
<g>
	<g>
		<path class="st7" d="M79.7,86.6c2.6,1.6,5.3,3.1,7.9,4.7c2.1,1.2,4.3,2.9,6.8,2.8c2.4,0,4.6-1.3,6.6-2.6c2.5-1.7,5-3.5,7.4-5.3
			c0.7-0.5,0-1.5-0.6-1.1c-2.2,1.5-4.4,3.1-6.5,4.6c-2,1.4-4.3,3.1-6.8,3.1c-2.5,0-4.8-1.8-6.8-3c-2.4-1.4-4.8-2.9-7.2-4.3
			C79.7,85.1,79,86.2,79.7,86.6L79.7,86.6z"/>
	</g>
</g>
<path class="st7" d="M84.9,88.3c0,0,7.9,3.6,19.4,0l-5.9,4L96,93.5l-2.8-0.1l-5.4-2.7L84.9,89V88.3z"/>
<path class="st2" d="M62.8,171.5L30.1,148l-6.3,0.3l2.2,5.4l34.8,30.3l1.7-2C62.4,178.4,62.5,175,62.8,171.5z"/>
<path class="st2" d="M164.8,147.8l-36.4,20.7c0.2,0.4,0.4,0.8,0.5,1.1c0.1,0.5,0.2,1,0.2,1.5c0,0.9-0.2,1.7-0.7,2.5
	c-0.2,0.2-0.4,0.5-0.6,0.7l3.6,5.3l36.9-25.8l2.6-5.1L164.8,147.8z"/>
<path class="st5" d="M127.3,78.2l-1.5,12.2l-1.8,97.1c2.8-1.4,5.7-2.7,8.4-4.3C128.3,149,137.7,76,137.7,76
	c9.6-73.3-43.6-55.5-43.6-55.5C34.1,6.2,56.2,87,56.2,87c6.4,15.6,0.7,73.9-1.6,94.6c0.4,0.4,0.9,0.8,1.2,1.3
	c-0.4-0.5,0.5,0.5,0.2,0.2c0.4,0.3,0.9,0.6,1.4,0.8c0.8,0.4,1.7,0.8,2.6,1.1c1.5,0.5,3,1.1,4.5,1.7l2.5-76.4
	C46,4.9,96.7,31.5,96.7,31.5C131.8,20.1,127.3,78.2,127.3,78.2z"/>
<g>
	<g>
		<path class="st8" d="M168.4,124.8c4.3-0.8,7.8,2.9,8.4,6.9c0.3,2,0.2,4.2-0.8,6c-0.5,0.9-3.5,4.4-4,1.9c-0.4-2,1.6-3.8,3.6-3.1
			c2,0.7,2.8,3.4,3.3,5.2c0.7,2.3,1.2,4.6,1.4,7c0.2,2.2,0.4,5-0.3,7.2c0.2-0.2,0.4-0.5,0.6-0.7c-0.1,0.1-0.1,0.1-0.2,0.2
			c0.5,0.1,1,0.1,1.5,0.2c0,0-0.1-0.1-0.1-0.1c0.1,0.3,0.2,0.6,0.4,0.9c0-0.1,0-0.1,0-0.2c-0.4,0.4-0.8,0.8-1.2,1.2c0,0,0.1,0,0.1,0
			c1.6-0.2,1.6-2.7,0-2.5c0,0-0.1,0-0.1,0c-0.7,0.1-1.2,0.5-1.2,1.2c0,0.4,0.1,0.9,0.5,1.1c0.4,0.3,1,0.5,1.5,0.2
			c1-0.7,1-1.7,1.1-2.9c0.2-1.5,0.2-3,0.2-4.5c-0.1-2.8-0.6-5.7-1.4-8.4c-0.7-2.2-1.5-4.9-3.3-6.4c-1.7-1.5-4.2-1.8-6.2-0.7
			c-1.9,1.1-2.9,3.4-2.5,5.6c0.5,2.6,2.8,3.4,5.1,2.4c4.3-1.9,5.3-7.5,4.5-11.7c-1.1-5.4-5.9-9.4-11.5-8.4
			C166.2,122.6,166.9,125,168.4,124.8L168.4,124.8z"/>
	</g>
</g>
<g>
	<g>
		<path class="st8" d="M150.8,129.6c-2.8,4.4-6.5,8.3-11,11c-5,3-10.7,4.1-16.4,4.5c-6.1,0.4-12.3,0.4-18.4,0.5
			c-6.4,0-12.7-0.1-19-0.8c-11.3-1.1-22.6-4-32.3-10c-2.4-1.5-4.6-3.1-6.8-4.9c-1.9-1.5-3.8-3.1-6-4.1c-4.4-2-9.3-0.9-12.3,3
			c-3.3,4.3-2.5,10.4,1.1,14.2c1.7,1.8,3.8,2.9,6.3,3.1c2.1,0.1,4.4-0.8,5.3-2.8c0.2-0.5,0.2-1.1-0.2-1.5c-2.9-2.9-7.6-2.5-10.8-0.2
			c-3.7,2.7-4.9,7.6-5.4,11.9c-0.2,1.6,2.3,1.6,2.5,0c0.4-3.4,1.3-7.2,3.9-9.5c2.1-1.9,5.8-2.6,8-0.4c-0.1-0.5-0.1-1-0.2-1.5
			c-0.8,1.7-2.8,1.8-4.5,1.4c-2.1-0.6-3.7-2.3-4.7-4.2c-2.2-4.1-0.8-9.1,3.4-11.2c4.6-2.3,9,1.4,12.4,4.2c4,3.3,8.3,6,13.1,8.2
			c9.8,4.5,20.4,6.5,31.1,7.3c6,0.4,12.1,0.5,18.1,0.4c5.7-0.1,11.4,0,17.1-0.6c5.8-0.5,11.6-1.9,16.6-5c4.6-2.9,8.4-7,11.4-11.6
			C153.8,129.5,151.6,128.3,150.8,129.6L150.8,129.6z"/>
	</g>
</g>
<polygon class="st9" points="66.8,121.4 71.4,130.7 81.6,132.1 74.2,139.3 76,149.5 66.8,144.7 57.7,149.5 59.5,139.3 52.1,132.1 
	62.3,130.7 "/>
<polygon class="st9" points="99.7,127.4 104.7,137.6 115.9,139.2 107.8,147.2 109.7,158.3 99.7,153.1 89.6,158.3 91.5,147.2 
	83.4,139.2 94.6,137.6 "/>
<polygon class="st9" points="132.5,122.7 137,131.9 147.2,133.4 139.9,140.6 141.6,150.7 132.5,145.9 123.3,150.7 125.1,140.6 
	117.7,133.4 127.9,131.9 "/>
<polygon class="st9" points="153.8,110.2 160.7,117 170.2,115.3 165.8,123.9 170.5,132.4 160.9,130.9 154.2,138 152.7,128.4 
	143.9,124.2 152.6,119.8 "/>
<polygon class="st9" points="47.6,110.5 48.2,119.9 56.3,124.8 47.5,128.2 45.4,137.4 39.4,130.1 30,130.9 35,123 31.4,114.3 
	40.5,116.7 "/>
</svg>
