<?xml version="1.0" encoding="utf-8"?>
<!-- Generator: Adobe Illustrator 24.0.1, SVG Export Plug-In . SVG Version: 6.00 Build 0)  -->
<svg version="1.1" id="Layer_1" xmlns="http://www.w3.org/2000/svg" xmlns:xlink="http://www.w3.org/1999/xlink" x="0px" y="0px"
	 viewBox="0 0 198.4 198.4" style="enable-background:new 0 0 198.4 198.4;" xml:space="preserve">
<style type="text/css">
	.st0{fill:#25325B;}
	.st1{fill:#51261D;}
	.st2{fill:#E70E71;}
	.st3{fill:#D0D2D3;}
	.st4{fill:#A6A8AB;}
	.st5{fill:#BBBDBF;}
	.st6{fill:#6EBE5A;}
	.st7{fill:#F5A576;}
	.st8{fill:#72382A;}
	.st9{fill:#512815;}
	.st10{fill:#C36242;}
	.st11{fill:#BE5A3F;}
	.st12{fill:#404041;}
	.st13{fill:#F5A576;stroke:#F5A576;stroke-width:0.25;stroke-miterlimit:10;}
	.st14{fill:#212323;}
	.st15{fill:#353535;}
	.st16{fill:#68696B;}
	.st17{fill:#F3E419;}
	.st18{fill:#FAAF40;}
</style>
<circle class="st0" cx="104.4" cy="115.5" r="76"/>
<path class="st1" d="M84.7,188.7c3.6,1,7.8,1.8,11.5,2.2c0.6,0.1,1.2,0.1,1.9,0.2c1.3,0,2.6,0.1,3.8,0.1c4.2,0,8.4-0.2,12.6-0.6
	c1.6-0.6,3.2-1.2,4.8-1.8c4.1-1.4,8.3-2.2,12.4-3.6c2.8-1,5.4-2.2,8.1-3.4l5.9-58.5l-1.4-29.8l-51.2,21.3L69.6,120l6.9,65
	C79.2,186.2,81.7,187.9,84.7,188.7z"/>
<path class="st2" d="M79.8,161.9l3.1,26.2c0.6,0.2,1.2,0.4,1.8,0.6c3.6,1,7.8,1.8,11.5,2.2c0.6,0.1,1.2,0.1,1.9,0.2
	c1.3,0,2.6,0.1,3.8,0.1c4.2,0,8.4-0.2,12.6-0.6c1.6-0.6,3.2-1.2,4.8-1.8c1.7-0.6,3.4-1.1,5.1-1.5l2.1-31l0.6-0.6
	c-0.3-0.8-0.5-1.6-0.7-2.5c-2-4-3.4-8.2-4.3-12.5c0-0.1-0.1-0.2-0.1-0.2c-0.9-0.5-1.8-1-2.7-1.5c-3-0.2-6-0.4-8.9-0.6
	c-4.6-0.3-9.3-0.7-13.9-0.8h-0.1c0,0,0,0-0.1,0c-0.2,0.1-0.5,0.2-0.8,0.2c-0.1,0.2-0.2,0.4-0.4,0.6c-0.2,0.3-0.5,0.4-0.8,0.5
	c-0.3,0.2-0.7,0.2-1,0.2l0,0c-0.2,0-0.5-0.1-0.7-0.1l0,0c-0.2-0.1-0.5-0.2-0.7-0.3c0,0,0,0-0.1,0c0,0,0,0-0.1,0
	c-0.2-0.1-0.4-0.3-0.5-0.4c-0.1-0.1-0.1-0.1-0.2-0.2c-2.1,0.4-4.3,0.7-6.4,1.2c-0.5,0.1-0.9,0.2-1.4,0.4c-1.5,1.1-2.8,2.4-4,3.8
	c-0.5,1.3-1.1,2.5-1.6,3.8c-0.2,0.6-0.4,1.3-0.5,1.9h0.1c0.4,0.3,0.7,0.6,1,1c0.3,0.5,0.4,1.1,0.5,1.7c0,0.2,0,0.4,0,0.7
	c0,0.7-0.3,1.4-0.8,1.9c-0.3,0.3-0.7,0.6-1.2,0.7c0,2.2,0,4.4,0,6.6h3.1V161.9z"/>
<path class="st3" d="M111.7,190.9c0.5,0,0.9-0.1,1.4-0.1l1.2-28.2H92.9l-1.4,0.9l21.6,0.5L111.7,190.9z"/>
<path class="st4" d="M96.2,190.9c0.6,0.1,1.2,0.2,1.9,0.2c1.3,0,2.6,0.1,3.8,0.1c3.3,0,6.5-0.1,9.8-0.4l1.5-27.5H91.5v26.8
	C93.1,190.5,94.7,190.7,96.2,190.9z"/>
<path class="st5" d="M106,191.2l1.3-19.5l0.4-4.6l-1.5,0.9l-1.9,23.3C104.9,191.2,105.4,191.2,106,191.2z"/>
<polygon class="st3" points="85.5,167.9 86.5,167.1 107.7,167.1 106.2,167.9 "/>
<path class="st6" d="M96.2,190.9c0.6,0.1,1.2,0.1,1.8,0.2c1.3,0,2.6,0.1,3.8,0.1c0.8,0,1.6,0,2.4,0l1.9-23.3H85.5v21
	C89,189.8,92.8,190.5,96.2,190.9z"/>
<path class="st7" d="M128.3,177.1c0.2-0.6,0.4-1.2,0.5-1.8c0.8-3.3,1.4-6.7,2-10c0.4-2.1,0.9-4.3,1.2-6.5c0.3-2.5,0.6-5,0.6-7.4
	l-8.9,1.9l-1.4,21l-19.2-0.5c0,0-2.6-1.4-4.3-1.4l-2.6-0.2c0,0-2.6,0.8,1.1,1.4h1.4c0,0,1.5,0.8-4.5,0.3c0,0-2,0.5,0.6,1.1l3.2,0.5
	c0,0,0.8,0.7,0,1l-4.5-0.4c0,0-0.7,0.9,0.4,1l4.1,0.4c0,0,0.4,0.3,0,0.7h-4.1c0,0-0.8,1.1,0.4,0.9c0.4-0.1,4-0.1,4-0.1
	s0.4,0.7-2.8,1c0,0-0.8,0.7,0,0.9c0,0,6-1.6,6.9-2.3c0,0,23.3,1.6,25,0.9C127.2,179.5,127.7,178.7,128.3,177.1z"/>
<path class="st7" d="M97.9,187.2c0.5,0.8,4.1,3.2,5.3,4c0.3,0,0.6,0,0.9,0c0.1-0.3-0.2-0.7-0.2-0.7c-2.8-1.2-2.3-1.8-2.3-1.8
	s3.4,0.9,3.8,1.2c1,0.6,0.6-0.9,0.6-0.9l-3.9-1.1c-0.2-0.5,0.2-0.8,0.2-0.8l4,0.7c1,0.2,0.7-0.9,0.7-0.9l-4.4-0.8
	c-0.7-0.5,0.3-1,0.3-1l3.2,0.3c2.6,0,0.9-1.1,0.9-1.1c-5.9-1.1-4.2-1.5-4.2-1.5l1.3,0.4c3.7,0.4,1.5-1.2,1.5-1.2l-2.5-0.5
	c-1.6-0.4-4.5,0.4-4.5,0.4l-18.3-4.6l5.2-23.1l-8.4-4.8c-5,20.7-3,32.1-3,32.1C75.4,182.6,97.9,187.2,97.9,187.2z"/>
<path class="st7" d="M149.9,74.9c0,0-6.3-13.9-11.7-5.5c0,0-14.3-31-45.7-20.4c0,0-44.5,2.3-42.5,46.2c0,0-11.2,1.6-2.5,13.1
	c0,0,4.2,5.9,10.1,3.8c0,0,7.2,18.7,34,19.9l0,0c0.2,0,0.4,0,0.6,0c0,0,0,0,0.1,0l0,0c0.4,0,0.7,0.1,1.1,0.3c1,0.3,2,0.9,2.5,2
	c0.6,1.2,0.9,2.6,1,3.9c2.8,1.7,7.3,3.1,12,0.2c-0.2-1.7-0.2-3.4,0.2-5c0.3-1.2,0.9-2.5,2-3.3c0.3-0.3,0.6-0.5,1-0.6v-0.1
	c0,0,0.1,0,0.4-0.1c0.2-0.1,0.4-0.1,0.7-0.2c6.1-1.8,37.1-12.5,31.3-46.2C144.2,83,152,81.4,149.9,74.9z"/>
<circle class="st2" cx="52.5" cy="110.2" r="1.2"/>
<circle class="st2" cx="147" cy="78.9" r="1.2"/>
<path class="st8" d="M59.9,176.5c5.1,2.7,9.9,6,15.3,7.9c0.8,0.3,1.6,0.6,2.3,1c-0.2-23-8-78.7-8-78.7c-20.2-58.8,23-52.8,23-52.8
	c64.6-26.5,51.3,90.1,45.3,128.7c1.1-0.5,2.3-1,3.4-1.5c1.3-6.3,2.3-12.7,2.9-19.1c1.5-13.9,1.8-27.9,2.2-41.9
	c0.3-9.2,0.7-18.4,0.3-27.6c-0.1-2.9-0.3-5.7-0.6-8.6c-0.7-3.4-1.5-6.8-2.6-10.1c-2.4-7.5-6.2-14.4-9.9-21.4
	c-0.2-0.2-0.3-0.4-0.5-0.6c-4.9-5.6-10.8-10.3-18.2-11.9c-5.4-1.2-10.9-1.1-16.4-0.4c-5.1,1.9-8.4,4-8.4,4c-64,5.2-34.7,69-34.7,69
	L59.9,176.5z"/>
<path class="st8" d="M84.4,40.4c3.4-0.3,5,3.4,6.1,5.9c0.7-0.4,1.4-0.8,2.1-1.2c-1.6-3.5-1-8,1.5-10.9c0.4-0.5,0.5-1.2,0-1.7
	c-0.4-0.4-1.3-0.5-1.7,0c-3.3,3.8-4,9.3-1.9,13.8c0.3,0.6,1.1,0.7,1.6,0.4c0.6-0.4,0.7-1,0.4-1.6c-0.8-1.8-1.6-3.5-3-4.9
	c-1.3-1.4-3.2-2.3-5.2-2.2c-0.6,0.1-1.2,0.5-1.2,1.2C83.2,39.8,83.7,40.5,84.4,40.4L84.4,40.4z"/>
<path class="st8" d="M90.2,43.5c0,0-34.9-7.1-40,27.1l5.7,17l13.7-34.2l19.2-6.6c0,0,14-1.1,15.1-1.1s20.8,2.8,20.8,2.8L141,66.9
	C141,66.9,126.8,18.7,90.2,43.5z"/>
<ellipse class="st9" cx="82.7" cy="95.4" rx="4.1" ry="5.7"/>
<ellipse class="st9" cx="124.4" cy="86.2" rx="4.1" ry="5.7"/>
<path class="st10" d="M102,102.5c0.6-1,1.6-1.7,2.8-2c1.3-0.3,2.6,0,3.6,0.8c0.6,0.4,1.2-0.6,0.6-1c-1.3-0.9-3-1.2-4.5-0.9
	c-1.4,0.3-2.7,1.3-3.5,2.5C100.5,102.6,101.6,103.2,102,102.5L102,102.5z"/>
<path class="st9" d="M74.4,82.8c1.8-2.3,5.1-3.3,7.8-2.3c0.1-0.5,0.1-1.1,0-1.6c-2.6-0.4-5.4,0.3-7.5,1.8c-0.4,0.3-0.7,0.6-0.8,1
	c-0.1,0.4,0.2,0.9,0.6,0.9"/>
<path class="st9" d="M118.6,72.7c2.6-1.3,6-0.9,8.2,1c0.3-0.4,0.6-0.8,0.8-1.3c-0.9-0.4-1.9-0.7-2.8-1.1c-0.5-0.2-1-0.4-1.6-0.5
	c-1.3-0.2-2.6,0.1-3.8,0.4c-0.4,0.1-0.8,0.2-1,0.6S118.3,72.7,118.6,72.7"/>
<path class="st11" d="M95.2,110.2l21.6-2.5c0,0,1.7,9.2-8.2,11.5C108.7,119.2,96.6,120.1,95.2,110.2z"/>
<path class="st12" d="M93.8,181.5l-0.7-0.2c-0.8-0.2-1.5,0.3-1.7,1.1L91,184c-0.2,0.8,0.3,1.5,1.1,1.7l0.7,0.2
	c0.8,0.2,1.5-0.3,1.7-1.1l0.4-1.6C95.1,182.5,94.6,181.7,93.8,181.5z"/>
<path class="st12" d="M94.2,180.3l-0.3-0.1c-0.4-0.1-0.7,0.1-0.8,0.5l-1.3,5.3c-0.1,0.4,0.1,0.7,0.5,0.8l0.3,0.1
	c0.4,0.1,0.7-0.1,0.8-0.5l1.3-5.3C94.8,180.7,94.6,180.4,94.2,180.3z"/>
<path class="st13" d="M98.5,139.4c1,0.6,2.4,1,3.8,1s3-0.1,3.9-0.7c0.5-0.3,0.6-0.9,0-1.3c-0.6-0.3-1.6-0.4-2.2,0c0,0-0.1,0-0.1,0.1
	c-0.1,0.1-0.1,0,0.1-0.1c-0.1,0-0.2,0.1-0.3,0.1c-0.1,0-0.1,0,0.1,0c-0.1,0-0.1,0-0.2,0s-0.2,0-0.3,0c-0.1,0-0.1,0-0.2,0
	c0.3,0,0.3,0,0.2,0c-0.1,0-0.2,0-0.3,0c-0.3,0-0.5,0-0.8,0c-0.1,0-0.1,0-0.2,0c-0.2,0-0.1,0,0.1,0c-0.1,0-0.2,0-0.3,0
	c-0.1,0-0.2,0-0.3-0.1c-0.1,0-0.1,0-0.2,0c0.2,0.1,0.3,0.1,0.1,0c-0.2-0.1-0.4-0.1-0.6-0.2c-0.1-0.1-0.1,0,0.1,0c0,0-0.1,0-0.1-0.1
	c-0.1,0-0.2-0.1-0.3-0.1c-0.6-0.3-1.6-0.4-2.2,0C97.9,138.5,97.9,139,98.5,139.4L98.5,139.4z"/>
<path class="st2" d="M123.8,141.4c-1.6-0.8-3.1-1.5-4.7-2.4c-1.9-0.2-3.8-0.3-5.7-0.4c0.3,1.4,0.7,2.7,0.9,2.9
	c0.4,0.5,9.4,11.8,9.4,11.8l8.4-1.8c-1.2-2.2-2.6-4.2-4.2-6.1C126.7,143.9,125.2,142.7,123.8,141.4z"/>
<path class="st2" d="M108.7,138.4c-2.9,3.6-6.2,3.2-8.6,2.1c-0.7-0.2-1.5-0.5-2-1c-0.2-0.2-0.3-0.3-0.4-0.5
	c-0.6-0.4-0.9-0.8-0.9-0.8c-20.1-2.8-19.7,11.1-19.7,11.1l55.5,2.1C125.3,134.8,108.7,138.4,108.7,138.4z"/>
<path class="st4" d="M96.6,137.5l-1.4,0.3c0,0,7.4,9.8,15.9,0.3l-2.4-0.3C108.7,137.9,102.9,144.2,96.6,137.5z"/>
<path class="st14" d="M49,70.1c0,0-2.8,12.8,15.1,9.9c0,0,42.2-8.2,56.7-34.8c0,0,2.9-6,1-7.5l23.9-17.3l-41-15.3
	c0,0-32.3,25.4-70.9,31.7L18.7,76.4L49,70.1z"/>
<path class="st15" d="M33.8,36.8L29,64.2c0,0,81-15.6,115.1-43.4c0,0-35.3,28.1-65.4,38.6c0,0-43,15.8-59.8,17.2L33.8,36.8z"/>
<path class="st15" d="M53.2,50.4c0,0,12.5-23.7,51.9-22C105.1,28.3,68.4,20,53.2,50.4z"/>
<path class="st15" d="M122,37.8c0,0-3.7,2.5-4.1,2.7c-0.4,0.3-9.5,5.5-9.5,5.5c0.8,9.7-15.6,22.3-22.1,26.9c0.9-0.4,1.8-0.8,2.8-1.3
	c1.5-0.7,2.9-1.5,4.4-2.1C128.1,49.8,122,37.8,122,37.8z"/>
<path class="st16" d="M19,76.6c0,0,51.3-11.8,74.3-24.6c0,0,44.2-22.2,50.4-31l-33-13.5L146,19.9c0,0-14.7,14.4-47.7,31.4
	C98.3,51.4,53.8,73,19,76.6z"/>
<polygon class="st17" points="143.4,23.2 147.1,19.9 147.1,41 145.3,41 "/>
<circle class="st17" cx="146.7" cy="43.2" r="3.4"/>
<path class="st17" d="M144.8,46.4l-2.7,10.3c0,0,3,9.1,6.4,6.7V44.7L144.8,46.4z"/>
<circle class="st18" cx="147.2" cy="43.4" r="2.5"/>
<path class="st18" d="M146.2,46.5l-2.1,10.7c0,0,3.5,3.6,5.5,3.8l-1.1-14.6L146.2,46.5z"/>
<polygon class="st18" points="144.7,22.1 146.3,39.9 147.2,39.9 147.1,19.9 "/>
<path class="st1" d="M82.9,188.1v0.3c0,0-5.4-1.7-5.4-1.8s0-1.2,0-1.2L82.9,188.1z"/>
<polygon class="st2" points="85.5,189.1 85.5,188.8 83.2,186.6 82.9,187.8 82.9,188.4 "/>
<path class="st6" d="M85.5,188.6v0.5c0,0,6.7,1.6,9.2,1.7c0,0,6.9,0.7,9.6,0.6V191l-1.7,0.1l-7.7-0.8L85.5,188.6z"/>
<path class="st7" d="M103.2,191.2c0,0,1.4,0.5,0.8-0.6l-2.2-1.3c0,0-0.4-0.4,0.2-0.6l3.9,1.3c0,0,0.7-0.2,0.1-1l-3.9-1.1l-0.9,0.6
	l0.5,1.6L103.2,191.2z"/>
<polygon class="st5" points="104.3,191.1 104.3,191.5 105.9,191.5 106,191.2 "/>
<polygon class="st3" points="111.7,190.7 111.7,191.1 113.1,191 113.1,190.7 "/>
<path class="st4" d="M106,191v0.4c0,0,4.5-0.2,5.8-0.3v-0.4L106,191z"/>
<path class="st2" d="M113.1,190.7v0.3l1.4-0.2c0,0,2.8-0.4,3.2-0.5c0,0,2.5-0.4,2.7-0.5c0,0,3.5-0.8,3.8-0.9l0.2-1.6l-5,1
	L113.1,190.7z"/>
<path class="st1" d="M124.4,187.3l-0.2,1.6c0,0,4.9-1.4,6.5-2.1c0,0,6-2.4,7-3l0.2-1.4L124.4,187.3z"/>
<polygon class="st8" points="141.3,181.1 141.1,182 137.7,183.8 137.9,182.4 141.4,180.8 "/>
<path class="st8" d="M59.9,176.5v0.6l0.8,0.6c0,0,1.5,1,1.7,1.1c0,0,0.7,0.5,1.5,1l0.9,0.5l0.8,0.5l1.2,0.7l0.9,0.5l1.1,0.6l0.8,0.4
	l0.7,0.4l0.8,0.4l0.9,0.4l0.7,0.3l1,0.4l1,0.4l0.6,0.2L76,186l0.6,0.2l0.6,0.2l0.4,0.2v-1.2l-0.2-0.6L59.9,176.5z"/>
</svg>
